<?xml version="1.0" standalone="no"?>
<!DOCTYPE svg PUBLIC "-//W3C//DTD SVG 20010904//EN"
 "http://www.w3.org/TR/2001/REC-SVG-20010904/DTD/svg10.dtd">
<svg version="1.0" xmlns="http://www.w3.org/2000/svg"
 width="2969.000000pt" height="3246.000000pt" viewBox="0 0 2969.000000 3246.000000"
 preserveAspectRatio="xMidYMid meet">

<g transform="translate(0.000000,3246.000000) scale(0.100000,-0.100000)"
fill="#000000" stroke="none">
<path d="M7420 28519 l-7405 -3939 4 -7073 c2 -3890 6 -7443 10 -7895 l6 -822
7415 -3921 7415 -3921 60 31 c33 16 3368 1789 7410 3939 l7350 3910 -4 4048
c-2 2227 -7 5778 -10 7892 l-6 3844 -7290 3854 c-4009 2120 -7348 3885 -7420
3923 l-130 68 -7405 -3938z m7925 2854 c198 -105 457 -241 575 -303 118 -62
451 -238 740 -390 289 -153 693 -366 899 -475 1055 -555 8689 -4594 9326
-4933 187 -99 727 -385 1200 -635 l860 -455 7 -524 c3 -287 8 -3646 10 -7462
l3 -6940 -515 -274 c-283 -150 -832 -443 -1220 -649 -930 -497 -1747 -932
-2500 -1333 -666 -355 -6131 -3261 -6915 -3677 -944 -502 -1454 -773 -1720
-913 -148 -79 -485 -257 -747 -396 -263 -140 -479 -254 -482 -254 -2 0 -62 31
-133 68 -70 38 -348 185 -618 327 -1977 1040 -10874 5744 -12525 6622 -96 51
-326 173 -511 270 l-336 178 -7 2125 c-3 1169 -9 4526 -12 7460 l-6 5335 398
211 c220 117 696 370 1059 564 1234 659 8943 4760 10490 5580 50 26 302 160
560 297 259 138 574 304 700 371 127 67 381 202 565 300 l335 179 80 -42 c44
-23 242 -128 440 -232z"/>
<path d="M20690 28186 c-124 -27 -228 -113 -293 -242 -19 -38 -137 -312 -262
-609 -125 -297 -319 -758 -432 -1025 -112 -267 -215 -517 -229 -557 -56 -165
-10 -286 139 -365 35 -19 57 -23 137 -23 181 0 207 32 386 475 l82 205 584 2
583 3 69 -173 c103 -258 169 -391 220 -441 133 -133 392 -84 477 91 29 59 29
129 1 221 -13 40 -185 447 -384 905 -198 457 -401 926 -450 1042 -107 252
-144 320 -208 384 -101 101 -261 142 -420 107z m315 -1163 l203 -518 -406 -3
c-223 -1 -407 -1 -408 1 -3 2 159 429 362 955 20 51 39 91 42 88 3 -3 96 -239
207 -523z"/>
<path d="M8502 28131 c-61 -21 -105 -59 -134 -115 -16 -31 -19 -53 -16 -102 5
-81 41 -136 113 -173 l50 -26 683 -5 682 -5 -777 -869 c-428 -478 -802 -897
-830 -933 -87 -106 -101 -198 -51 -316 26 -60 92 -119 167 -149 l56 -23 1080
0 1080 0 53 29 c76 43 107 97 107 192 0 93 -29 140 -112 181 l-58 28 -807 3
-807 3 676 752 c856 952 833 926 887 998 26 35 53 85 62 116 20 70 22 183 5
246 -18 63 -77 128 -143 158 l-53 24 -930 2 c-881 2 -933 2 -983 -16z"/>
<path d="M11332 28135 c-29 -8 -65 -21 -80 -29 -43 -22 -97 -87 -118 -142 -18
-47 -19 -95 -19 -1190 l0 -1141 35 -69 c30 -58 44 -74 89 -101 29 -17 75 -37
103 -42 32 -7 349 -11 937 -11 980 0 954 -2 1028 63 94 83 99 234 9 323 -75
76 -54 74 -868 74 l-718 0 0 375 0 375 643 0 c537 0 652 2 693 15 154 46 204
238 90 351 -74 75 -63 74 -788 74 l-638 0 0 320 0 319 713 3 712 3 58 28 c86
43 112 87 112 192 0 105 -26 149 -112 192 l-58 28 -885 2 c-741 2 -894 0 -938
-12z"/>
<path d="M14032 28134 c-29 -7 -65 -20 -80 -28 -45 -23 -98 -89 -118 -147 -18
-52 -19 -105 -19 -1184 l0 -1130 23 -56 c28 -69 71 -115 142 -148 l55 -26 680
0 c723 0 762 2 951 50 238 60 420 204 519 410 49 101 68 190 68 320 0 222 -71
376 -236 508 -58 46 -191 119 -268 146 l-33 11 77 45 c145 85 239 194 295 343
23 59 26 82 26 202 1 122 -2 142 -26 208 -36 99 -81 171 -153 244 -142 143
-294 211 -537 237 -59 7 -339 11 -705 10 -492 0 -618 -3 -661 -15z m1170 -448
c184 -34 263 -86 294 -192 48 -165 -27 -341 -172 -406 -93 -41 -177 -48 -545
-48 l-349 0 0 336 0 336 343 -5 c255 -3 364 -9 429 -21z m121 -1104 c109 -30
159 -54 210 -101 69 -64 92 -125 92 -246 0 -82 -5 -109 -23 -150 -46 -102
-135 -167 -280 -208 -71 -19 -106 -21 -484 -25 l-408 -3 0 381 0 381 408 -3
c380 -4 412 -6 485 -26z"/>
<path d="M16950 28134 c-97 -26 -160 -82 -197 -175 -17 -41 -18 -117 -18
-1194 0 -1114 1 -1152 20 -1210 27 -84 100 -157 180 -181 126 -36 278 2 345
86 65 82 64 74 68 619 l3 494 167 -6 c249 -9 334 -39 458 -162 87 -87 145
-169 365 -511 239 -372 278 -425 345 -473 68 -49 134 -65 229 -58 158 12 277
125 263 251 -8 63 -65 197 -141 331 -167 291 -360 520 -549 652 -37 26 -55 44
-47 47 8 2 55 16 104 31 399 119 600 376 582 744 -6 129 -24 200 -79 311 -34
68 -60 103 -129 172 -74 73 -103 94 -191 137 -118 59 -216 86 -359 101 -59 6
-364 10 -733 9 -523 0 -640 -3 -686 -15z m1261 -447 c126 -29 209 -89 256
-185 25 -51 28 -68 28 -157 0 -92 -2 -104 -30 -154 -49 -89 -132 -139 -289
-173 -78 -17 -142 -21 -458 -25 l-368 -5 0 362 0 362 398 -5 c303 -4 413 -9
463 -20z"/>
<path d="M4050 24231 l0 -671 -40 -6 c-60 -10 -49 -44 15 -44 l23 0 6 -362
c11 -694 15 -3147 5 -3153 -5 -4 -34 -9 -65 -12 -73 -8 -65 -27 14 -31 l62 -3
0 -879 0 -880 -50 0 c-43 0 -50 -3 -50 -19 0 -15 10 -20 48 -26 l49 -6 6 -331
c4 -182 7 -567 7 -855 l0 -523 -55 0 c-42 0 -55 -3 -55 -15 0 -11 13 -15 53
-15 l54 0 6 -1352 c4 -743 7 -1814 7 -2379 l0 -1028 38 -10 c24 -7 400 -11
1120 -11 l1082 0 0 -34 c0 -18 3 -48 6 -65 6 -30 7 -31 65 -31 l59 0 0 65 0
65 1880 0 1879 0 3 -67 3 -68 64 -3 63 -3 -4 69 -4 69 96 7 c52 3 885 6 1852
6 l1756 0 7 -75 7 -75 59 0 59 0 2 38 c1 20 2 53 2 72 l1 35 1885 0 1885 0 5
-70 5 -70 63 -3 63 -3 -2 73 -2 73 1850 3 1851 2 7 -75 7 -75 59 0 59 0 0 75
0 75 1849 0 1850 0 5 -42 c3 -24 7 -59 8 -78 2 -21 8 -35 16 -34 6 1 35 2 62
3 l50 1 0 69 c0 46 4 71 13 74 6 3 492 2 1080 -1 802 -4 1067 -2 1067 6 0 7
15 12 35 12 l35 0 0 65 0 65 -1122 2 c-618 2 -1154 2 -1193 1 -38 0 -901 -4
-1917 -8 -1464 -6 -1848 -5 -1848 4 0 10 -16 11 -62 6 -112 -13 -3768 -16
-3768 -4 0 7 -20 9 -62 4 -35 -3 -911 -11 -1947 -17 -1737 -10 -1885 -9 -1896
6 -16 21 -107 22 -125 1 -11 -13 -230 -15 -1861 -15 -1637 0 -1849 2 -1849 15
0 21 -103 21 -124 0 -13 -13 -236 -15 -1890 -15 -1869 0 -1876 0 -1876 20 0
18 -7 20 -65 20 -56 0 -65 -2 -65 -18 0 -18 -40 -19 -1047 -25 -576 -4 -1048
-5 -1049 -4 -1 1 -6 658 -10 1460 l-7 1457 151 0 152 0 -7 48 c-3 26 -7 48 -9
50 -1 2 -65 3 -142 3 l-139 -1 -7 1277 c-3 703 -9 2249 -12 3436 l-7 2157 157
0 156 0 0 50 0 50 -155 0 -155 0 -1 593 c-1 325 -5 1038 -8 1582 l-6 990 -62
3 -63 3 0 -670z"/>
<path d="M14082 24280 c-254 -4 -304 -7 -312 -20 -15 -24 -12 -55 9 -78 17
-21 27 -22 163 -22 l145 0 6 -257 c4 -141 7 -687 7 -1214 l0 -959 -187 -2
-188 -3 -3 -47 -3 -48 190 0 191 0 0 -457 c0 -252 3 -648 7 -880 l6 -423 -735
0 c-662 0 -736 -2 -742 -16 -3 -9 -6 -708 -6 -1555 l0 -1539 68 0 c37 0 365 0
728 0 598 0 662 -1 668 -16 3 -8 6 -459 6 -1000 l0 -984 -207 -1 c-115 -1
-200 -3 -190 -6 13 -3 17 -15 17 -49 l0 -44 190 0 190 0 0 -628 c0 -346 3
-737 7 -870 l6 -242 -171 0 -171 0 -6 -33 c-4 -19 -5 -47 -3 -63 l3 -29 360 2
c198 2 370 5 383 8 18 4 22 12 22 46 0 64 -10 68 -161 71 l-134 3 -8 1905 c-4
1048 -5 1911 -2 1919 5 12 113 13 715 8 668 -6 710 -5 710 11 1 19 1 693 0
2125 l0 977 -710 0 -710 0 0 1213 c0 668 -3 1633 -7 2145 l-6 932 156 0 c175
0 171 -2 162 75 -2 22 -4 43 -4 48 -1 4 -34 6 -73 5 -40 -1 -209 -5 -376 -8z
m1458 -4510 c0 -5 7 -10 15 -10 8 0 15 -4 15 -10 0 -5 -7 -10 -15 -10 -13 0
-15 -87 -15 -720 0 -633 2 -720 15 -720 29 0 15 -19 -17 -25 -18 -3 -654 -4
-1413 -2 l-1380 2 -3 740 c-1 407 0 746 3 753 6 16 2795 18 2795 2z m8 -1696
c25 -7 30 -24 7 -24 -13 0 -15 -71 -15 -575 0 -504 2 -575 15 -575 24 0 18
-37 -7 -44 -13 -3 -650 -6 -1415 -6 l-1393 0 0 615 0 615 1393 0 c765 0 1402
-3 1415 -6z"/>
<path d="M3490 23861 c-8 -5 -36 -19 -63 -31 -28 -13 -57 -36 -72 -58 -30 -43
-33 -82 -7 -82 9 0 33 -3 53 -6 34 -6 37 -4 43 22 4 16 21 41 39 56 24 22 40
28 77 28 52 0 79 -18 100 -69 11 -27 10 -37 -5 -71 -15 -34 -25 -42 -78 -60
-34 -11 -69 -20 -80 -20 -15 0 -18 -6 -15 -32 l3 -32 62 3 c46 2 71 -2 93 -15
16 -10 30 -22 30 -26 0 -4 5 -8 11 -8 22 0 38 -35 39 -81 0 -39 -5 -51 -32
-78 -40 -39 -93 -56 -150 -47 -53 9 -79 29 -100 81 -16 39 -17 40 -60 37 -58
-5 -70 -16 -55 -50 22 -52 59 -91 110 -118 46 -25 63 -28 141 -28 61 0 91 4
94 12 2 7 11 12 21 12 26 0 77 47 101 91 46 89 7 236 -66 251 -27 5 -27 23 0
38 46 24 70 112 47 172 -18 48 -41 63 -159 109 -28 11 -102 11 -122 0z"/>
<path d="M17627 23303 c-9 -8 -9 -70 -1 -100 6 -23 9 -23 166 -23 l161 0 -7
-572 c-3 -315 -8 -1084 -11 -1708 -3 -624 -8 -1190 -11 -1258 l-6 -122 -696 0
c-494 1 -698 -2 -706 -10 -12 -12 -22 -2564 -11 -2627 l6 -33 714 0 715 0 0
-1640 0 -1640 -149 0 c-82 0 -156 -3 -165 -6 -12 -5 -16 -21 -16 -70 l0 -64
93 0 c50 0 217 3 370 7 260 6 277 7 277 25 0 11 7 18 20 18 17 0 20 7 20 45
l0 45 -159 0 c-131 0 -160 3 -165 15 -3 8 -4 252 -3 542 l2 528 208 3 207 2 0
50 0 50 -207 2 -208 3 -3 1043 -2 1042 709 0 c390 0 716 3 725 6 14 6 16 132
16 1329 0 1162 -2 1324 -15 1329 -8 3 -337 6 -730 6 l-716 2 6 1021 c3 562 8
1037 11 1055 l5 32 204 0 205 0 0 50 0 50 -205 0 -205 0 0 523 c0 287 3 613 7
725 l6 202 138 0 137 0 8 28 c11 38 13 64 8 85 -5 16 -31 17 -373 17 -202 0
-371 -3 -374 -7z m1771 -4495 l2 -618 -1395 0 -1395 0 0 620 0 620 1393 -2
1392 -3 3 -617z m2 -1333 l0 -525 -1395 0 -1395 0 0 525 0 525 1395 0 1395 0
0 -525z"/>
<path d="M6433 23083 l-363 -3 0 -64 0 -64 148 6 149 5 6 -804 c4 -442 7
-1244 7 -1781 l0 -978 -717 0 c-395 0 -729 -3 -741 -7 -23 -5 -23 -9 -18 -72
3 -36 8 -616 12 -1287 4 -672 10 -1228 15 -1235 7 -12 132 -15 714 -17 l705
-3 0 -32 c0 -18 7 -493 15 -1057 8 -564 15 -1259 15 -1546 l0 -521 -92 -7
c-50 -3 -124 -6 -164 -6 -69 0 -74 -2 -80 -23 -3 -13 -4 -41 -2 -63 l3 -39
379 4 c262 2 385 7 398 15 15 9 18 21 16 71 l-3 60 -156 -4 -157 -3 -6 153
c-8 200 -26 2008 -26 2567 l0 432 688 0 c445 0 700 4 725 11 l37 10 0 1293 c0
1058 -2 1295 -13 1299 -7 3 -328 6 -712 6 -385 1 -701 4 -704 6 -2 3 -6 804
-9 1780 l-5 1775 155 0 c153 0 156 0 162 23 12 44 4 111 -13 105 -3 -2 -169
-4 -368 -5z m1397 -4393 l0 -610 -1400 0 -1400 0 0 610 0 610 1400 0 1400 0 0
-610z m0 -1300 l0 -510 -1400 0 -1400 0 0 510 0 510 1400 0 1400 0 0 -510z"/>
<path d="M9913 23075 c-17 -19 -16 -83 1 -101 12 -12 41 -13 159 -8 l144 7 6
-243 c4 -134 7 -937 7 -1785 l0 -1542 -102 -6 c-57 -4 -377 -6 -713 -7 -335 0
-616 0 -623 0 -10 0 -12 -263 -10 -1297 l3 -1298 728 -3 727 -2 0 -213 c0
-116 -1 -572 -1 -1012 -2 -955 -2 -880 1 -935 2 -25 2 -267 1 -537 l-1 -493
-145 0 c-83 0 -145 -4 -145 -9 0 -5 -10 -11 -22 -13 -20 -3 -23 -9 -23 -43 0
-32 4 -40 20 -44 11 -2 22 -6 25 -10 3 -3 170 -5 373 -3 l367 2 0 63 0 62
-155 -4 -155 -3 0 531 0 531 135 0 135 0 0 50 0 50 -129 0 c-72 0 -132 4 -136
9 -3 5 -2 462 1 1015 l7 1006 692 0 c542 0 695 3 703 13 8 10 5 740 -11 2340
l-2 248 -702 2 c-386 1 -703 4 -706 7 -2 3 -6 505 -8 1115 l-4 1110 148 3 147
3 0 49 0 49 -147 3 -148 3 -3 618 -2 617 153 0 c106 0 157 4 165 12 7 7 12 28
12 48 0 20 -5 41 -12 48 -19 19 -739 16 -755 -3z m1767 -4385 l0 -610 -1395 0
-1395 0 0 610 0 610 1395 0 1395 0 0 -610z m0 -1300 l0 -510 -1395 0 -1395 0
0 510 0 510 1395 0 1395 0 0 -510z"/>
<path d="M21450 23041 c0 -85 -10 -81 181 -74 l169 6 0 -374 c0 -206 -3 -485
-7 -621 l-6 -248 -134 0 -133 0 0 -50 0 -50 136 0 137 0 -7 -562 c-3 -310 -9
-812 -12 -1115 l-7 -553 -86 -1 c-47 -1 -349 -1 -671 -1 -322 1 -597 -1 -611
-4 -23 -4 -28 -12 -33 -47 -5 -30 -11 -2455 -7 -2544 1 -10 154 -13 731 -13
l730 0 -2 -1012 -3 -1013 -135 -1 c-74 -1 -141 -2 -148 -3 -9 -1 -12 -15 -10
-48 l3 -48 148 -3 147 -3 0 -529 0 -530 -175 0 -175 0 0 -62 0 -63 367 3 c332
2 369 4 383 20 19 20 20 74 3 80 -7 2 -13 9 -13 15 0 9 -38 12 -132 12 l-133
0 -3 1570 c-1 864 0 1580 3 1593 l5 22 705 0 705 0 0 1300 c0 1032 -3 1300
-12 1302 -14 2 -174 3 -957 6 l-484 2 6 1468 c4 807 10 1610 14 1785 l6 317
128 0 c70 0 134 3 143 6 23 9 22 83 -1 100 -14 11 -96 13 -385 14 l-368 0 0
-49z m1800 -4351 l0 -610 -1384 0 c-1253 0 -1384 1 -1390 16 -7 17 -9 1198 -2
1205 2 2 628 3 1390 1 l1386 -2 0 -610z m0 -1302 l0 -513 -1377 3 c-758 1
-1384 4 -1390 7 -10 3 -13 113 -13 503 0 274 3 502 7 505 3 4 629 7 1390 7
l1383 0 0 -512z"/>
<path d="M25548 22653 l-208 -3 0 -65 0 -65 165 0 165 0 0 -452 c0 -249 -3
-1010 -7 -1690 l-6 -1238 -719 0 c-472 0 -718 -3 -718 -10 0 -5 -7 -10 -15
-10 -12 0 -14 -161 -17 -1212 -2 -667 -2 -1215 0 -1218 2 -3 337 -6 744 -8
l740 -2 -3 -1494 c-2 -822 -7 -1497 -11 -1501 -3 -4 -76 -9 -162 -12 l-156 -6
0 -58 0 -58 108 -3 c59 -2 225 -2 370 0 l262 3 0 64 0 65 -146 0 -147 0 7
1113 c3 611 9 1286 12 1499 l7 388 701 2 701 3 3 1219 c2 969 0 1221 -10 1228
-7 4 -329 8 -715 8 l-703 0 0 1258 c0 692 3 1455 7 1695 l6 437 134 0 c151 0
163 5 163 65 0 62 -9 65 -187 63 -87 -2 -251 -4 -365 -5z m1555 -3613 c4 0 7
-251 7 -557 l0 -558 -1393 1 -1392 1 -3 549 c-1 302 0 554 2 559 2 7 2039 11
2779 5z m2 -1792 l0 -473 -1380 -2 c-759 -1 -1387 0 -1395 2 -13 4 -15 63 -12
467 1 255 4 468 6 473 2 7 473 9 1392 8 l1389 -3 0 -472z"/>
<path d="M3485 22081 c-88 -21 -155 -83 -155 -143 0 -24 4 -28 30 -28 17 0 30
-4 30 -10 0 -5 5 -10 11 -10 15 0 39 26 39 43 0 8 11 27 25 43 23 26 31 29 87
29 65 0 117 -24 118 -53 0 -7 7 -15 15 -18 16 -7 21 -64 6 -64 -5 0 -19 -19
-31 -42 -22 -43 -94 -118 -113 -118 -5 0 -20 -11 -33 -25 -13 -14 -26 -25 -30
-25 -4 0 -21 -15 -38 -32 -18 -18 -41 -38 -52 -44 -30 -18 -85 -100 -91 -138
l-6 -36 247 0 246 0 0 45 0 45 -170 0 c-93 0 -170 3 -170 8 0 12 58 72 69 72
6 0 11 5 11 10 0 6 6 10 14 10 7 0 24 10 38 23 62 55 94 80 114 89 31 15 80
98 88 149 4 27 2 66 -5 93 -12 50 -59 106 -88 106 -11 0 -21 4 -23 10 -4 12
-143 21 -183 11z"/>
<path d="M1840 21737 c-107 -25 -196 -90 -245 -178 -27 -49 -30 -63 -30 -144
0 -73 5 -100 24 -142 105 -235 509 -286 691 -86 66 73 92 143 93 253 0 115
-21 185 -76 246 l-43 48 -70 -33 c-106 -50 -108 -53 -72 -111 52 -83 56 -178
11 -238 -21 -28 -50 -49 -56 -42 -3 3 -14 93 -26 200 -18 156 -26 199 -40 214
-24 24 -90 29 -161 13z m53 -279 c4 -18 9 -61 13 -95 8 -76 -3 -84 -72 -58
-80 30 -92 108 -26 162 15 13 39 23 53 23 22 0 28 -5 32 -32z"/>
<path d="M4983 21723 c-19 -7 -17 -80 3 -87 9 -3 112 -6 230 -6 l214 0 0 50 0
50 -217 -1 c-120 0 -224 -3 -230 -6z"/>
<path d="M5870 21680 l0 -50 185 0 185 0 0 50 0 50 -185 0 -185 0 0 -50z"/>
<path d="M6648 21723 c-14 -3 -18 -15 -18 -49 l0 -44 265 0 265 0 0 50 0 50
-247 -1 c-137 -1 -256 -3 -265 -6z"/>
<path d="M7610 21680 l0 -50 200 0 200 0 0 50 0 50 -200 0 -200 0 0 -50z"/>
<path d="M8457 21723 c-2 -5 -2 -27 1 -50 l4 -43 229 0 229 0 0 50 0 50 -229
0 c-127 0 -232 -3 -234 -7z"/>
<path d="M9340 21686 c0 -31 5 -46 16 -50 9 -3 112 -6 229 -6 l213 0 4 46 c2
25 1 47 -1 50 -2 2 -107 4 -233 4 l-228 0 0 -44z"/>
<path d="M11060 21680 l0 -50 230 0 230 0 0 50 0 50 -230 0 -230 0 0 -50z"/>
<path d="M11949 21728 c0 -2 -2 -24 -4 -50 l-4 -48 214 0 215 0 0 50 0 50
-210 0 c-115 0 -210 -1 -211 -2z"/>
<path d="M12798 21688 c-3 -24 -3 -46 -1 -50 2 -5 105 -8 229 -8 l224 0 0 50
0 50 -224 0 -224 0 -4 -42z"/>
<path d="M14550 21680 l0 -50 215 0 215 0 0 50 0 50 -215 0 -215 0 0 -50z"/>
<path d="M15430 21680 l0 -50 198 2 197 3 0 45 0 45 -197 3 -198 2 0 -50z"/>
<path d="M16290 21680 l0 -50 215 0 215 0 0 50 0 50 -215 0 -215 0 0 -50z"/>
<path d="M17160 21680 l0 -50 225 0 225 0 0 44 c0 31 -5 46 -16 50 -9 3 -110
6 -225 6 l-209 0 0 -50z"/>
<path d="M18882 21683 l3 -48 233 -3 233 -2 -3 47 -3 48 -233 3 -233 2 3 -47z"/>
<path d="M19780 21680 l0 -50 230 0 230 0 0 50 0 50 -230 0 -230 0 0 -50z"/>
<path d="M20644 21706 c-3 -13 -4 -35 -2 -47 l3 -24 218 -3 217 -2 0 50 0 50
-215 0 -215 0 -6 -24z"/>
<path d="M22400 21680 l0 -50 205 0 205 0 0 50 0 50 -205 0 -205 0 0 -50z"/>
<path d="M23250 21680 l0 -50 211 0 210 0 -3 48 -3 47 -207 3 -208 2 0 -50z"/>
<path d="M24110 21680 l0 -50 216 0 215 0 -3 48 -3 47 -212 3 -213 2 0 -50z"/>
<path d="M25010 21680 l0 -50 240 0 240 0 0 50 0 50 -240 0 -240 0 0 -50z"/>
<path d="M25872 21683 l3 -48 220 0 220 0 0 45 0 45 -223 3 -223 2 3 -47z"/>
<path d="M26710 21680 l0 -50 225 0 225 0 0 50 0 50 -225 0 -225 0 0 -50z"/>
<path d="M27610 21680 l0 -50 226 0 225 0 -3 48 -3 47 -222 3 -223 2 0 -50z"/>
<path d="M1604 20994 c-8 -30 18 -112 52 -165 13 -21 24 -40 24 -42 0 -3 -18
-7 -41 -10 -22 -3 -43 -7 -45 -10 -4 -4 31 -212 41 -243 3 -9 21 -8 67 3 44
10 148 16 349 20 158 3 292 8 298 12 16 10 25 133 14 201 l-8 55 -205 -3
c-113 -2 -210 1 -217 5 -21 15 -33 62 -33 129 0 35 -3 64 -7 65 -5 0 -70 2
-146 4 l-137 3 -6 -24z"/>
<path d="M1863 20445 c-123 -34 -215 -112 -253 -212 -31 -83 -25 -226 12 -298
115 -220 478 -265 662 -82 61 62 88 126 94 224 9 171 -70 294 -228 354 -72 28
-214 35 -287 14z m206 -245 c35 -18 71 -68 71 -100 0 -7 -7 -28 -16 -46 -44
-93 -220 -100 -274 -12 -24 39 -25 69 -5 108 33 64 147 90 224 50z"/>
<path d="M3580 20279 c0 -11 -15 -27 -42 -44 -8 -5 -39 -27 -69 -47 -30 -21
-63 -38 -75 -38 -24 0 -34 -17 -34 -62 0 -28 2 -29 33 -23 44 9 98 36 124 63
12 12 27 22 33 22 7 0 10 -87 10 -265 l0 -265 45 0 45 0 0 335 0 335 -35 0
c-19 0 -35 -5 -35 -11z"/>
<path d="M1637 19682 c-51 -56 -65 -215 -28 -313 24 -64 99 -147 159 -178 234
-119 535 -23 608 194 34 98 -3 315 -53 315 -32 0 -188 -31 -203 -40 -13 -8
-13 -14 -1 -42 22 -54 24 -109 4 -147 -28 -54 -63 -74 -130 -75 -123 -1 -179
80 -141 206 14 48 13 49 -98 77 -101 25 -97 25 -117 3z"/>
<path d="M1663 19034 c-91 -48 -93 -50 -93 -98 0 -74 67 -191 138 -239 95 -66
192 -54 306 38 83 67 108 75 144 48 20 -15 31 -37 42 -84 10 -39 22 -65 30
-67 8 -1 53 21 99 49 l83 52 -5 48 c-13 108 -112 246 -192 268 -99 27 -168 9
-267 -70 -83 -66 -114 -73 -153 -34 -20 19 -25 34 -25 75 0 63 -11 64 -107 14z"/>
<path d="M3475 18508 c-11 -6 -27 -15 -35 -20 -8 -4 -21 -11 -29 -15 -33 -15
-81 -88 -81 -124 0 -10 -4 -19 -10 -19 -16 0 -12 -257 5 -306 20 -59 48 -106
70 -118 10 -6 28 -19 39 -28 11 -10 35 -21 54 -24 48 -9 175 1 180 15 2 6 10
11 17 11 19 0 58 38 77 75 74 142 57 406 -31 494 -21 21 -78 51 -98 51 -7 0
-13 5 -13 10 0 14 -120 12 -145 -2z m135 -76 c0 -4 10 -12 23 -17 12 -6 26
-20 32 -32 5 -13 15 -23 22 -23 7 0 13 -9 13 -19 0 -11 5 -23 10 -26 6 -4 10
-60 10 -136 0 -79 -4 -129 -10 -129 -5 0 -10 -11 -10 -25 0 -16 -6 -25 -15
-25 -8 0 -15 -5 -15 -12 0 -7 -15 -25 -32 -40 -48 -41 -124 -38 -173 7 -21 19
-45 78 -45 112 0 23 -5 33 -15 33 -12 0 -15 17 -15 90 0 73 3 90 15 90 10 0
15 11 16 33 1 40 28 89 57 102 12 5 22 13 22 17 0 5 25 8 55 8 30 0 55 -3 55
-8z"/>
<path d="M1654 18169 c-10 -17 -28 -223 -21 -242 4 -12 18 -17 44 -17 l37 0
-36 -37 c-45 -47 -58 -79 -58 -147 0 -139 88 -243 240 -282 75 -19 178 -15
250 10 64 23 139 83 175 140 26 42 30 61 33 130 3 73 1 87 -26 139 l-29 57 35
0 c25 0 41 -8 63 -31 56 -60 62 -165 15 -281 -28 -70 -29 -69 83 -89 72 -12
74 -12 92 10 28 35 54 164 53 276 0 220 -72 320 -259 360 -88 18 -679 22 -691
4z m380 -253 c131 -55 82 -226 -66 -226 -74 0 -127 48 -128 116 0 92 101 149
194 110z"/>
<path d="M1859 17357 c-159 -54 -249 -192 -236 -363 15 -202 165 -324 397
-325 183 0 322 85 376 232 22 59 22 190 0 249 -38 102 -120 178 -227 211 -87
27 -223 25 -310 -4z m255 -236 c37 -23 56 -58 56 -103 0 -46 -62 -104 -122
-113 -81 -12 -157 26 -178 90 -10 30 -9 41 7 73 38 77 155 103 237 53z"/>
<path d="M3575 16720 c-10 -11 -22 -20 -27 -20 -5 0 -22 -16 -39 -35 -33 -37
-71 -59 -119 -70 -28 -6 -30 -10 -30 -52 l0 -45 33 7 c45 10 85 32 118 66 16
16 33 29 39 29 7 0 10 -91 10 -269 0 -149 3 -272 8 -274 4 -2 24 -2 45 0 l37
5 0 339 0 339 -28 0 c-16 0 -37 -9 -47 -20z"/>
<path d="M1317 16584 c-4 -4 -7 -70 -7 -147 l0 -139 63 6 c34 3 271 8 527 11
256 3 475 8 488 11 22 4 23 7 20 127 l-3 122 -470 1 c-259 0 -502 4 -540 8
-39 4 -73 4 -78 0z"/>
<path d="M2909 16363 c0 -5 -2 -16 -4 -27 -9 -45 -1 -47 154 -44 l146 3 3 38
3 37 -150 0 c-83 0 -151 -3 -152 -7z"/>
<path d="M2163 16219 c4 -19 10 -88 13 -153 l7 -119 -122 109 c-184 164 -184
164 -289 157 -48 -3 -89 -8 -92 -10 -3 -3 -5 -102 -5 -221 0 -120 -4 -238 -9
-264 -6 -37 -5 -49 5 -51 17 -5 182 -38 223 -45 l28 -5 -2 94 c-1 52 -2 111
-1 132 l1 39 38 -30 c20 -17 84 -76 142 -132 l105 -102 100 1 c54 1 104 6 110
11 8 7 9 32 3 82 -5 40 -8 167 -6 283 l3 210 -95 16 c-53 9 -111 20 -129 24
l-34 7 6 -33z"/>
<path d="M1361 15524 c-25 -32 -56 -123 -45 -134 5 -4 47 -16 94 -25 161 -31
625 -136 822 -186 109 -27 205 -49 215 -49 14 0 26 19 46 70 15 38 27 74 27
79 0 13 -24 19 -315 81 -132 28 -368 83 -525 121 -157 38 -288 69 -292 69 -4
0 -16 -12 -27 -26z"/>
<path d="M2174 15073 c4 -9 10 -76 13 -147 l6 -131 -24 21 c-13 11 -62 54
-109 96 -47 41 -107 91 -133 112 -47 35 -51 36 -136 36 -48 0 -92 -5 -97 -10
-7 -7 -9 -76 -6 -193 2 -100 -1 -216 -6 -257 -5 -41 -7 -81 -5 -87 3 -7 19
-13 37 -13 17 0 69 -9 116 -20 47 -11 88 -20 93 -20 4 0 7 59 7 130 0 72 4
130 8 130 5 0 70 -58 144 -130 l136 -130 111 7 112 6 -8 56 c-4 31 -7 161 -7
289 0 127 -3 232 -7 232 -4 0 -60 9 -124 20 -140 24 -129 24 -121 3z"/>
<path d="M3490 14971 c-79 -12 -142 -65 -161 -133 -13 -50 -7 -58 44 -58 37 0
44 4 55 29 37 83 114 122 175 89 53 -28 67 -50 67 -112 0 -51 -4 -63 -32 -100
-39 -48 -68 -75 -84 -76 -7 0 -40 -27 -75 -60 -35 -33 -69 -60 -76 -60 -19 0
-92 -102 -99 -138 l-6 -32 246 0 247 0 -3 38 -3 37 -163 2 c-90 1 -167 4 -170
7 -9 10 69 85 106 103 17 8 52 35 77 59 24 24 47 44 50 44 4 0 19 12 33 28 96
98 79 264 -32 312 -52 22 -134 31 -196 21z"/>
<path d="M5884 14761 c-2 -2 -4 -26 -4 -53 l0 -48 200 0 200 0 0 45 c0 38 -3
45 -22 49 -29 7 -368 12 -374 7z"/>
<path d="M22392 14762 c-9 -6 -12 -25 -10 -53 l3 -44 213 -3 212 -2 0 50 0 50
-174 0 c-95 0 -186 2 -202 5 -16 3 -35 2 -42 -3z"/>
<path d="M26888 14762 l-148 -3 0 -49 0 -50 240 0 240 0 0 45 c0 28 -5 47 -12
50 -23 7 -169 10 -320 7z"/>
<path d="M27610 14713 l0 -53 220 0 220 0 0 50 c0 43 -3 50 -22 55 -13 3 -112
4 -220 3 l-198 -3 0 -52z"/>
<path d="M4970 14710 l0 -50 236 0 235 0 -3 48 -3 47 -232 3 -233 2 0 -50z"/>
<path d="M6637 14753 c-4 -3 -7 -26 -7 -50 l0 -43 240 0 240 0 0 50 0 50 -233
0 c-129 0 -237 -3 -240 -7z"/>
<path d="M7570 14710 l0 -50 220 0 220 0 0 50 0 50 -220 0 -220 0 0 -50z"/>
<path d="M8470 14710 l0 -50 210 0 210 0 0 50 0 50 -210 0 -210 0 0 -50z"/>
<path d="M9340 14710 l0 -50 229 0 c153 0 231 4 233 11 2 5 2 28 0 50 l-4 39
-229 0 -229 0 0 -50z"/>
<path d="M11060 14710 l0 -50 215 0 215 0 0 50 0 50 -215 0 -215 0 0 -50z"/>
<path d="M11900 14710 l0 -50 235 0 235 0 0 50 0 50 -235 0 -235 0 0 -50z"/>
<path d="M12789 14758 c-1 -2 -3 -24 -4 -50 l-2 -48 234 0 234 0 -3 48 -3 47
-227 3 c-126 1 -229 1 -229 0z"/>
<path d="M14550 14710 l0 -50 215 0 215 0 0 50 0 50 -215 0 -215 0 0 -50z"/>
<path d="M15437 14718 c-3 -23 -3 -46 -1 -50 3 -4 93 -8 201 -8 l196 0 -7 31
c-3 17 -6 40 -6 50 0 18 -11 19 -189 19 l-188 0 -6 -42z"/>
<path d="M16290 14710 l0 -50 215 0 215 0 0 50 0 50 -215 0 -215 0 0 -50z"/>
<path d="M17165 14718 c4 -24 9 -46 12 -50 2 -5 101 -8 219 -8 l215 0 -3 48
-3 47 -223 3 -224 2 7 -42z"/>
<path d="M18880 14710 l0 -50 236 0 235 0 -3 48 -3 47 -232 3 -233 2 0 -50z"/>
<path d="M19780 14710 l0 -50 230 0 230 0 0 50 0 50 -230 0 -230 0 0 -50z"/>
<path d="M20640 14710 l0 -50 220 0 220 0 0 50 0 50 -220 0 -220 0 0 -50z"/>
<path d="M23220 14710 l0 -50 214 0 214 0 4 46 c2 25 1 47 -1 50 -2 2 -100 4
-218 4 l-213 0 0 -50z"/>
<path d="M24110 14710 l0 -50 215 0 215 0 0 50 0 50 -215 0 -215 0 0 -50z"/>
<path d="M25010 14710 l0 -50 201 0 c165 0 203 3 215 15 9 8 11 15 5 15 -5 0
-11 15 -13 33 l-3 32 -202 3 -203 2 0 -50z"/>
<path d="M25872 14713 l3 -48 216 -3 217 -2 4 46 c2 25 1 47 -1 50 -2 2 -103
4 -223 4 l-219 0 3 -47z"/>
<path d="M2922 14543 l3 -38 145 0 145 0 3 38 3 37 -151 0 -151 0 3 -37z"/>
<path d="M3485 13190 c-11 -5 -41 -16 -67 -26 -51 -18 -88 -64 -88 -108 0 -20
7 -25 41 -30 43 -7 69 5 69 30 0 7 12 25 27 39 21 19 39 25 71 25 62 0 96 -21
112 -69 24 -75 -24 -131 -115 -131 -35 0 -45 -13 -45 -56 0 -23 3 -24 59 -24
56 0 121 -23 121 -42 0 -5 6 -8 13 -8 6 0 18 -14 26 -31 11 -26 11 -38 1 -70
-7 -21 -17 -39 -22 -39 -5 0 -20 -12 -34 -27 -20 -22 -36 -28 -83 -31 -54 -4
-60 -2 -94 29 -21 19 -37 41 -37 50 0 27 -23 39 -66 32 -67 -11 -71 -25 -24
-88 22 -30 47 -55 55 -55 8 0 15 -4 15 -10 0 -5 16 -12 35 -16 19 -3 38 -10
41 -15 7 -12 114 -11 114 1 0 6 8 10 18 10 70 0 129 42 161 114 26 60 27 96 1
144 -29 56 -42 68 -85 87 -34 15 -37 19 -20 24 65 20 97 90 77 167 -17 61 -30
74 -134 125 -22 11 -117 10 -143 -1z"/>
<path d="M3940 12865 c0 -30 14 -31 88 -10 29 9 50 20 47 25 -4 6 -35 10 -71
10 -62 0 -64 -1 -64 -25z"/>
<path d="M2915 12790 c-3 -11 -3 -29 0 -40 6 -19 15 -20 156 -20 l150 0 -3 38
-3 37 -147 3 c-140 2 -147 2 -153 -18z"/>
<path d="M13565 11460 c-11 -4 -30 -10 -42 -15 -27 -9 -73 -100 -73 -144 0
-28 -3 -31 -29 -31 -21 0 -32 -6 -36 -20 -11 -35 3 -60 35 -60 l30 0 2 -202 3
-203 43 -3 42 -3 0 205 0 206 55 0 55 0 0 40 0 40 -55 0 c-54 0 -55 1 -55 28
0 44 48 91 96 96 54 4 80 16 62 28 -10 7 -10 11 -1 15 10 3 10 8 -1 19 -15 15
-96 18 -131 4z"/>
<path d="M17426 11460 c-47 -14 -67 -45 -79 -121 l-11 -69 -33 0 c-32 0 -33
-1 -33 -40 l0 -40 41 0 c40 0 41 -1 33 -27 -5 -16 -9 -107 -9 -203 l0 -175 53
-3 52 -3 0 205 0 206 55 0 55 0 0 34 c0 38 -12 46 -71 46 -39 0 -39 0 -39 41
0 54 20 72 86 77 53 4 54 5 54 37 0 25 -5 34 -22 39 -32 8 -97 6 -132 -4z"/>
<path d="M7115 11446 c-67 -17 -133 -53 -173 -96 -90 -97 -104 -295 -29 -433
18 -31 40 -60 50 -63 11 -3 30 -15 43 -27 40 -34 94 -50 189 -54 89 -5 205 18
205 39 0 4 8 8 18 8 21 0 82 56 82 76 0 7 5 14 10 14 6 0 10 6 10 13 0 7 9 23
21 35 l20 23 -23 19 c-26 22 -71 26 -86 7 -6 -6 -13 -24 -17 -40 -4 -15 -11
-27 -17 -27 -5 0 -21 -13 -35 -30 -13 -16 -31 -30 -38 -30 -7 0 -15 -6 -18
-12 -3 -9 -33 -13 -108 -13 l-105 1 -38 34 c-49 44 -86 102 -86 135 0 16 -6
25 -15 25 -12 0 -15 15 -15 75 0 60 3 75 15 75 9 0 15 9 15 23 0 50 87 137
138 137 11 0 24 5 27 10 3 6 35 10 71 10 36 0 64 -4 64 -10 0 -5 9 -10 20 -10
11 0 47 -27 80 -61 59 -59 62 -60 100 -54 46 8 48 16 20 68 -41 76 -87 106
-205 133 -72 16 -123 16 -190 0z"/>
<path d="M25258 11447 c-32 -5 -58 -14 -58 -18 0 -4 -13 -10 -29 -14 -40 -8
-105 -77 -136 -142 -22 -47 -25 -67 -25 -161 0 -75 5 -115 15 -136 8 -15 15
-35 15 -42 0 -8 3 -14 8 -14 4 0 16 -16 26 -35 11 -19 25 -35 32 -35 7 0 14
-4 16 -9 2 -5 30 -21 63 -37 55 -27 69 -29 175 -29 106 0 120 2 175 29 33 16
72 42 87 59 31 33 69 107 63 117 -3 4 -23 10 -45 14 -38 6 -44 4 -68 -26 -72
-87 -100 -106 -167 -113 -35 -4 -83 -4 -106 0 -42 7 -105 44 -122 72 -4 7 -13
13 -19 13 -16 0 -37 32 -38 57 0 12 -4 25 -10 28 -5 3 -10 42 -10 85 0 43 5
82 10 85 6 3 10 16 10 28 0 13 12 34 28 49 15 15 35 35 44 45 38 42 97 63 174
63 43 0 74 -4 74 -10 0 -5 6 -10 14 -10 27 0 81 -39 93 -67 18 -41 48 -56 94
-48 21 4 39 11 39 16 0 37 -88 149 -117 149 -7 0 -29 9 -50 19 -47 24 -175 33
-255 18z"/>
<path d="M13730 11406 c0 -25 3 -47 8 -49 17 -9 92 6 92 19 0 8 -4 14 -10 14
-5 0 -10 14 -10 30 0 28 -2 30 -40 30 l-40 0 0 -44z"/>
<path d="M17625 11437 c-3 -7 -4 -156 -3 -332 l3 -320 48 -3 47 -3 0 335 0
336 -45 0 c-28 0 -48 -5 -50 -13z"/>
<path d="M17867 11443 c-4 -3 -7 -23 -7 -44 0 -32 4 -40 24 -45 55 -13 77 12
62 72 -5 19 -13 24 -40 24 -18 0 -36 -3 -39 -7z"/>
<path d="M5297 11433 c-2 -5 0 -23 5 -40 l9 -33 114 0 115 0 0 -290 0 -290 55
0 55 0 0 290 0 290 130 0 130 0 6 25 c14 56 21 55 -310 55 -168 0 -307 -3
-309 -7z"/>
<path d="M6010 11110 l0 -330 45 0 45 0 0 260 c0 224 2 260 15 260 8 0 15 -9
15 -19 0 -11 4 -22 9 -26 6 -3 13 -26 17 -50 3 -25 10 -45 15 -45 5 0 9 -9 9
-20 0 -11 4 -28 10 -38 14 -24 41 -101 47 -134 3 -16 9 -28 14 -28 5 0 9 -11
9 -24 0 -13 7 -26 14 -29 8 -3 18 -23 22 -44 9 -47 25 -63 61 -63 59 0 72 9
79 56 3 24 10 44 15 44 5 0 9 9 9 20 0 10 6 34 14 52 8 18 23 60 32 93 9 33
21 64 26 70 4 5 8 17 8 27 0 10 6 18 13 18 6 0 20 28 31 63 39 133 41 128 44
-167 l2 -277 48 3 47 3 3 328 2 327 -70 0 -70 0 -14 -35 c-8 -19 -20 -35 -25
-35 -6 0 -11 -9 -11 -19 0 -11 -4 -23 -10 -26 -5 -3 -10 -13 -10 -22 0 -8 -6
-29 -13 -46 -8 -18 -22 -58 -32 -89 -10 -32 -22 -58 -26 -58 -4 0 -11 -20 -15
-45 -4 -28 -11 -45 -20 -45 -8 0 -14 -10 -14 -25 0 -14 -4 -25 -9 -25 -5 0
-11 -12 -13 -27 -4 -31 -28 -44 -28 -15 0 11 -7 33 -15 48 -8 16 -15 39 -15
52 0 12 -4 22 -9 22 -5 0 -12 20 -15 45 -5 29 -12 45 -22 45 -8 0 -14 7 -14
15 0 8 -4 23 -9 33 -23 46 -41 95 -41 112 0 10 -4 21 -9 24 -5 3 -12 18 -15
33 -19 79 -24 83 -103 83 l-73 0 0 -330z"/>
<path d="M9220 11416 c0 -55 3 -56 136 -56 l124 0 0 -290 0 -290 55 0 55 0 0
290 0 290 113 0 c123 1 147 9 147 54 l0 26 -315 0 -315 0 0 -24z"/>
<path d="M9920 11110 l0 -330 50 0 50 0 1 243 c0 253 5 298 26 249 6 -15 21
-59 33 -99 11 -39 30 -81 41 -94 11 -12 22 -34 26 -48 3 -14 9 -30 13 -36 4
-5 11 -26 15 -45 4 -19 11 -39 15 -45 4 -5 10 -23 14 -40 4 -16 12 -43 19 -58
11 -26 16 -28 62 -25 47 3 50 5 60 38 5 19 13 40 16 45 3 6 14 38 25 73 10 34
25 62 31 62 7 0 13 11 13 25 0 14 5 25 10 25 6 0 10 10 10 23 0 12 7 35 15 50
8 15 17 43 21 62 3 19 10 35 15 35 5 0 9 12 9 28 1 15 7 41 15 57 12 26 13 -4
14 -247 l1 -278 55 0 55 0 0 330 0 331 -77 -3 -77 -3 -9 -35 c-5 -19 -13 -39
-18 -44 -5 -6 -9 -17 -9 -25 0 -9 -7 -29 -15 -45 -8 -15 -15 -37 -15 -47 0
-11 -7 -19 -15 -19 -8 0 -15 -8 -15 -17 0 -10 -7 -31 -15 -47 -8 -15 -15 -35
-15 -42 0 -8 -4 -14 -9 -14 -5 0 -12 -20 -15 -45 -4 -24 -11 -47 -16 -50 -5
-3 -12 -26 -16 -51 -5 -34 -10 -44 -21 -40 -8 3 -19 6 -24 6 -5 0 -9 8 -9 17
0 10 -7 38 -16 63 -9 25 -19 52 -22 60 -2 8 -15 44 -28 80 -13 36 -24 73 -24
83 0 9 -4 17 -8 17 -4 0 -14 20 -21 45 -7 25 -17 45 -22 45 -5 0 -14 12 -20
28 -32 86 -27 82 -106 82 l-73 0 0 -330z"/>
<path d="M10810 11418 c0 -13 -1 -160 -2 -328 l-1 -305 247 -3 246 -2 0 40 0
40 -192 2 -193 3 -1 285 0 285 -52 3 c-48 3 -52 1 -52 -20z"/>
<path d="M15170 11110 l0 -330 43 1 c43 0 101 17 65 18 -16 1 -18 14 -18 130
0 150 -8 141 126 141 l82 0 36 -40 c20 -22 36 -45 36 -50 0 -6 7 -10 15 -10 8
0 15 -3 15 -8 0 -4 11 -19 24 -33 13 -14 27 -35 30 -47 4 -12 12 -22 17 -22 5
0 9 -7 9 -15 0 -8 4 -15 8 -15 5 0 14 -11 20 -25 11 -23 17 -25 76 -25 36 0
67 4 70 8 3 4 -7 22 -22 38 -29 32 -45 56 -63 91 -6 12 -20 24 -30 26 -10 3
-23 16 -28 29 -5 12 -25 41 -44 62 -29 33 -33 42 -22 53 8 7 20 13 27 13 8 0
23 7 34 15 10 8 26 15 34 15 9 0 24 10 35 23 17 18 20 37 20 108 0 90 -7 106
-59 136 -73 42 -83 43 -312 43 l-224 0 0 -330z m450 229 c17 -13 31 -34 35
-56 18 -98 -29 -130 -207 -140 -63 -3 -131 -3 -151 1 l-37 7 0 104 0 105 165
0 c153 0 168 -2 195 -21z"/>
<path d="M18970 11110 l0 -331 55 3 56 3 2 133 c2 105 5 135 17 142 22 14 202
12 220 -3 19 -16 80 -105 80 -117 0 -6 5 -10 11 -10 14 0 39 -26 40 -42 0 -7
15 -33 33 -58 32 -44 34 -45 99 -50 48 -4 68 -1 72 8 2 6 1 12 -3 12 -4 0 -23
24 -41 54 -18 30 -44 62 -57 71 -13 8 -24 21 -24 28 0 7 -11 21 -25 31 -14 10
-25 24 -25 31 0 6 -11 22 -25 35 -34 32 -31 46 11 53 20 3 45 14 55 23 11 10
29 22 41 28 29 14 42 71 34 139 -9 69 -19 80 -110 127 -37 18 -59 20 -278 20
l-238 0 0 -330z m438 244 c52 -10 72 -38 72 -97 0 -89 -39 -106 -254 -114
-100 -4 -131 -2 -137 9 -5 7 -9 57 -9 111 l0 97 149 0 c82 0 162 -3 179 -6z"/>
<path d="M20510 11110 l0 -330 233 2 232 3 0 35 0 35 -177 3 -178 2 0 290 0
290 -55 0 -55 0 0 -330z"/>
<path d="M21682 11108 l3 -333 48 -1 c39 -1 47 2 47 17 0 10 5 21 10 24 6 3
10 2 10 -3 0 -19 69 -42 127 -42 90 1 165 42 194 109 8 17 19 31 25 31 13 0
19 19 29 91 8 57 -12 159 -32 159 -7 0 -13 7 -13 15 0 8 -4 15 -10 15 -5 0
-10 6 -10 13 0 7 -10 19 -21 27 -12 8 -28 21 -35 28 -17 16 -182 21 -192 5 -4
-5 -19 -13 -34 -17 -16 -3 -28 -11 -28 -16 0 -6 -6 -10 -12 -10 -10 0 -12 27
-10 110 l3 110 -51 0 -50 0 2 -332z m295 85 c49 -23 58 -32 77 -78 29 -68 17
-173 -26 -226 -7 -8 -32 -23 -56 -32 -35 -14 -51 -15 -89 -6 -26 5 -53 15 -61
21 -58 49 -60 211 -2 282 15 18 84 54 107 55 7 1 29 -7 50 -16z"/>
<path d="M22300 11110 l0 -330 45 0 44 0 3 143 3 142 104 3 c113 3 144 -7 161
-54 5 -13 14 -24 20 -24 5 0 10 -7 10 -15 0 -8 6 -15 13 -15 6 0 38 -41 69
-90 l57 -90 71 0 c38 0 70 4 70 9 0 5 -4 11 -8 13 -5 2 -24 26 -42 53 -19 28
-51 67 -72 87 -21 21 -38 40 -38 44 0 4 -15 25 -33 48 -33 40 -38 66 -12 66
25 0 118 55 123 72 2 10 8 18 13 18 5 0 9 29 9 65 0 85 -20 118 -95 156 l-58
29 -228 0 -229 0 0 -330z m450 240 c24 -13 50 -65 50 -101 0 -37 -49 -85 -97
-94 -21 -4 -96 -9 -167 -12 -99 -3 -131 -1 -137 9 -5 7 -9 57 -9 111 l0 97
171 0 c94 0 179 -4 189 -10z"/>
<path d="M23078 11150 c-1 -159 -2 -307 -2 -327 l-1 -38 55 0 55 0 3 328 2
327 -55 0 -55 0 -2 -290z"/>
<path d="M25807 11433 c-3 -5 -4 -152 -3 -328 l1 -320 55 0 55 0 0 135 c0 78
4 138 10 142 30 22 205 1 205 -24 0 -5 7 -8 15 -8 8 0 15 -7 15 -15 0 -8 5
-15 10 -15 6 0 10 -7 10 -15 0 -9 7 -18 15 -21 8 -4 15 -10 15 -15 0 -12 56
-92 78 -110 10 -9 26 -26 35 -39 14 -21 23 -23 79 -21 34 1 66 5 70 7 5 3 -12
25 -37 48 -44 40 -68 72 -81 109 -3 9 -10 17 -15 17 -4 0 -16 14 -26 30 -9 17
-21 30 -26 30 -4 0 -19 12 -32 26 -23 25 -24 28 -7 40 9 7 25 14 35 14 40 0
100 50 118 97 14 37 11 88 -8 135 -21 52 -45 77 -84 85 -16 3 -32 10 -35 14
-6 11 -461 12 -467 2z m432 -90 c17 -10 31 -24 31 -30 0 -7 7 -13 15 -13 11 0
15 -12 15 -50 0 -32 -4 -50 -12 -50 -6 0 -22 -9 -34 -21 -19 -18 -43 -23 -168
-32 -112 -8 -149 -8 -158 1 -7 7 -12 50 -13 112 l-2 100 148 0 c122 0 153 -3
178 -17z"/>
<path d="M18296 11273 c-39 -4 -84 -27 -99 -50 -14 -22 -27 -14 -27 17 0 29
-2 30 -45 30 l-45 0 0 -248 0 -249 33 4 c77 9 72 3 69 101 -5 141 11 255 39
285 43 46 125 54 156 16 7 -8 15 -92 20 -204 l8 -190 48 -3 47 -3 0 166 c0
165 3 185 38 225 37 44 164 32 183 -17 5 -13 9 -103 9 -199 l0 -174 34 0 c60
0 63 4 55 68 -5 31 -8 119 -7 194 0 122 -2 141 -20 170 -30 47 -54 58 -130 59
-78 1 -118 -12 -150 -49 l-24 -27 -20 27 c-17 24 -106 63 -127 56 -3 -1 -24
-3 -45 -5z"/>
<path d="M12490 11025 l0 -245 50 0 50 0 0 142 c0 153 9 194 50 242 23 26 29
28 83 23 l57 -5 0 44 0 44 -65 0 c-61 0 -65 -1 -92 -35 -15 -19 -31 -35 -35
-35 -5 0 -8 16 -8 35 0 35 0 35 -45 35 l-45 0 0 -245z"/>
<path d="M13000 11260 c0 -5 -11 -10 -25 -10 -14 0 -28 -7 -31 -15 -4 -8 -10
-15 -15 -15 -14 0 -49 -33 -49 -47 0 -7 -4 -13 -10 -13 -5 0 -10 -9 -10 -20 0
-11 -6 -20 -14 -20 -16 0 -23 -66 -18 -150 3 -35 8 -50 18 -50 8 0 14 -7 14
-15 0 -17 26 -60 52 -87 46 -47 221 -65 295 -30 21 9 40 20 41 25 2 4 10 7 18
7 8 0 23 13 32 30 9 16 20 30 25 30 4 0 7 8 7 18 0 14 -12 21 -43 28 -47 11
-67 8 -67 -9 -1 -7 -10 -23 -21 -37 -20 -23 -28 -25 -107 -25 -59 0 -87 4 -89
13 -3 6 -10 12 -16 12 -24 0 -76 119 -53 121 6 0 97 0 202 -1 161 -1 192 1
197 13 8 21 -4 127 -14 127 -5 0 -9 8 -9 18 0 22 -32 62 -49 62 -6 0 -11 4
-11 9 0 5 -13 12 -30 16 -16 4 -32 11 -35 16 -8 12 -185 12 -185 -1z m191 -98
c16 -17 29 -42 29 -56 l0 -26 -140 0 c-129 0 -140 1 -140 18 0 22 32 62 49 62
6 0 11 4 11 9 0 17 54 31 108 27 45 -2 59 -8 83 -34z"/>
<path d="M13737 11263 c-4 -3 -7 -114 -7 -245 l0 -238 24 0 c13 0 31 -3 40 -6
14 -6 16 20 16 245 l0 251 -33 0 c-19 0 -37 -3 -40 -7z"/>
<path d="M13969 11208 c0 -35 -1 -144 -2 -243 l-1 -180 47 -3 46 -3 3 173 3
173 28 31 c22 24 40 33 77 38 63 8 127 -2 136 -23 4 -9 10 -99 13 -201 l6
-185 38 -3 38 -3 -3 214 c-3 233 -2 228 -65 261 -61 31 -243 13 -243 -25 0 -5
-7 -9 -15 -9 -9 0 -15 9 -15 25 0 23 -4 25 -45 25 l-45 0 -1 -62z"/>
<path d="M14672 11255 c-28 -15 -102 -92 -102 -106 0 -5 -6 -9 -14 -9 -17 0
-26 -43 -26 -120 0 -73 9 -120 24 -120 6 0 20 -16 31 -36 31 -57 92 -87 192
-92 92 -5 148 11 189 55 12 13 25 23 30 23 11 0 47 61 40 67 -2 3 -22 9 -43
13 -36 9 -40 7 -79 -35 l-41 -45 -70 0 c-51 0 -74 4 -83 15 -7 8 -18 15 -24
15 -21 0 -46 40 -52 83 l-6 42 201 -3 201 -3 0 53 c0 55 -27 138 -46 138 -6 0
-23 14 -37 30 -15 17 -34 30 -42 30 -8 0 -15 5 -15 10 0 15 -200 11 -228 -5z
m164 -56 c50 -13 94 -57 94 -95 l0 -24 -145 0 -145 0 6 27 c10 40 39 66 92 84
26 9 48 17 50 18 2 0 23 -4 48 -10z"/>
<path d="M16370 11025 l0 -245 50 0 50 0 0 141 c0 221 26 274 132 267 l53 -3
0 40 0 40 -63 3 c-59 3 -64 1 -95 -29 l-32 -33 -3 32 c-3 31 -5 32 -48 32
l-44 0 0 -245z"/>
<path d="M16846 11253 c-40 -14 -106 -77 -106 -100 0 -7 -4 -13 -10 -13 -5 0
-10 -15 -10 -34 0 -21 -6 -36 -15 -40 -10 -4 -15 -20 -15 -51 0 -31 5 -47 15
-51 8 -4 15 -17 15 -30 0 -13 5 -24 10 -24 6 0 10 -8 10 -17 0 -10 15 -34 33
-54 65 -71 215 -91 323 -43 32 14 65 35 74 47 21 31 41 69 37 73 -2 2 -24 7
-48 10 -43 6 -46 5 -69 -30 -17 -25 -35 -38 -58 -42 -42 -8 -142 0 -150 12 -4
5 -18 16 -31 25 -15 10 -28 32 -36 62 l-12 47 204 0 203 0 0 49 c0 28 -4 53
-10 56 -5 3 -10 16 -10 27 0 32 -39 88 -61 88 -10 0 -19 4 -19 10 0 36 -184
53 -264 23z m212 -75 c13 -11 42 -72 42 -89 0 -5 -68 -9 -152 -9 -118 0 -149
3 -140 12 7 7 12 20 12 30 0 10 11 23 24 28 13 5 28 16 33 24 18 33 142 36
181 4z"/>
<path d="M17860 11024 l0 -245 42 3 42 3 -1 120 c-1 66 -2 175 -3 243 l0 122
-40 0 -40 0 0 -246z"/>
<path d="M21170 11240 c-76 -40 -107 -101 -56 -114 13 -3 31 -9 39 -12 10 -3
24 7 41 32 26 39 71 64 113 64 34 0 103 -21 103 -32 0 -4 6 -8 14 -8 14 0 27
-62 17 -79 -4 -5 -40 -14 -81 -21 -41 -6 -97 -16 -125 -20 -112 -19 -165 -63
-165 -139 0 -46 35 -110 60 -111 8 0 24 -7 34 -15 44 -33 212 -10 239 33 13
20 37 14 49 -13 9 -21 18 -25 52 -25 l41 0 -3 192 c-2 106 -8 197 -13 202 -5
6 -9 16 -9 24 0 18 -18 35 -59 55 -26 13 -59 17 -135 16 -90 -1 -107 -4 -156
-29z m270 -270 c0 -38 -4 -50 -15 -50 -8 0 -15 -6 -15 -13 0 -36 -89 -72 -155
-63 -49 8 -62 20 -71 64 -5 25 -1 35 20 55 22 20 42 26 105 32 43 4 84 11 92
16 30 19 39 10 39 -41z"/>
<path d="M17003 9898 c-36 -41 -38 -51 -43 -232 l-5 -179 -30 25 c-66 55 -114
72 -222 76 -118 5 -171 -9 -245 -63 -100 -73 -148 -181 -155 -350 -10 -225 68
-392 219 -472 48 -25 62 -28 158 -28 96 0 110 2 162 29 32 16 67 39 79 52 29
31 33 30 48 -11 24 -68 102 -96 170 -61 56 29 56 27 59 581 2 281 0 530 -3
554 -5 29 -16 54 -35 73 -24 24 -36 28 -82 28 -44 0 -59 -4 -75 -22z m-190
-512 c43 -18 81 -61 108 -121 32 -70 32 -199 0 -270 -39 -89 -90 -125 -177
-125 -125 0 -204 122 -191 295 6 82 26 137 65 179 51 54 128 71 195 42z"/>
<path d="M17857 9909 c-47 -27 -47 -34 -47 -614 0 -383 3 -553 11 -568 20 -39
51 -57 101 -57 55 0 103 33 113 80 8 37 15 37 46 4 13 -14 47 -38 74 -52 45
-25 60 -27 160 -27 106 0 112 1 173 34 74 40 122 93 162 176 37 79 50 146 50
255 0 162 -38 269 -125 356 -75 75 -139 97 -275 92 -112 -4 -153 -18 -218 -73
-16 -14 -32 -25 -35 -25 -3 0 -6 79 -6 176 -2 182 -6 205 -45 236 -24 20 -110
24 -139 7z m488 -532 c60 -34 97 -114 103 -221 6 -108 -14 -179 -64 -230 -43
-44 -70 -56 -129 -56 -128 0 -200 96 -199 265 2 120 50 216 129 251 47 21 114
17 160 -9z"/>
<path d="M10343 9584 c-64 -32 -63 -27 -63 -606 0 -332 4 -537 11 -561 15 -55
43 -77 102 -77 63 0 85 13 108 63 16 36 19 67 19 209 l0 168 59 -43 c76 -56
128 -71 233 -65 103 6 178 39 244 110 164 175 164 533 -1 702 -69 71 -133 99
-241 104 -110 5 -165 -10 -239 -66 l-51 -39 -16 38 c-28 65 -104 94 -165 63z
m492 -219 c23 -17 48 -50 64 -84 35 -77 37 -211 3 -286 -40 -88 -89 -125 -167
-125 -60 0 -103 19 -142 63 -79 90 -84 287 -12 387 60 83 178 104 254 45z"/>
<path d="M13964 9586 c-153 -35 -252 -123 -305 -271 -29 -80 -32 -263 -7 -345
39 -126 129 -225 245 -271 51 -21 75 -23 198 -23 119 -1 148 3 191 20 162 66
253 206 179 279 -45 46 -94 34 -182 -46 -116 -106 -242 -115 -328 -25 -22 23
-46 60 -53 83 -23 77 -41 71 246 75 223 3 261 5 289 21 52 28 67 60 66 136 -3
161 -114 310 -268 357 -72 22 -199 26 -271 10z m190 -190 c41 -17 80 -67 95
-121 6 -22 11 -43 11 -47 0 -5 -83 -8 -185 -8 -102 0 -185 4 -185 9 0 19 31
94 49 120 41 56 140 78 215 47z"/>
<path d="M15643 9585 c-257 -56 -392 -337 -303 -627 38 -122 135 -224 253
-265 81 -28 302 -25 378 5 122 49 199 131 199 213 0 39 -4 51 -26 68 -46 36
-85 28 -158 -34 -35 -29 -81 -63 -102 -74 -133 -72 -281 1 -309 152 l-7 37
230 0 c255 0 323 9 358 47 29 32 40 99 26 169 -48 236 -275 366 -539 309z
m196 -190 c39 -20 78 -69 91 -113 18 -65 27 -62 -175 -62 -102 0 -185 1 -185
3 0 2 7 26 15 53 14 48 69 114 105 127 31 11 122 6 149 -8z"/>
<path d="M11567 9570 c-148 -52 -246 -165 -278 -320 -17 -80 -6 -242 20 -310
46 -119 148 -213 274 -252 90 -27 253 -22 337 11 241 93 343 407 215 668 -42
85 -102 142 -195 187 -60 28 -74 31 -190 33 -106 3 -134 0 -183 -17z m249
-189 c84 -38 131 -147 121 -279 -14 -180 -133 -280 -272 -228 -87 34 -135 125
-135 256 0 122 49 223 125 256 43 19 113 17 161 -5z"/>
<path d="M12298 9561 c-28 -25 -33 -36 -32 -73 1 -44 207 -665 245 -740 27
-52 71 -78 136 -78 41 0 58 5 82 25 37 32 54 77 127 335 33 115 60 196 64 188
4 -7 35 -110 70 -228 34 -118 71 -231 82 -251 26 -47 65 -69 123 -69 63 0 101
24 130 85 44 91 245 694 245 737 0 30 -7 46 -29 69 -25 25 -37 29 -83 29 -81
0 -90 -14 -158 -242 -32 -106 -68 -227 -80 -268 l-22 -75 -43 145 c-23 80 -57
196 -75 258 -43 149 -71 182 -153 182 -69 0 -102 -14 -126 -54 -11 -17 -49
-134 -85 -261 -36 -126 -70 -238 -74 -248 -5 -13 -29 56 -76 220 -99 342 -100
343 -190 343 -36 0 -52 -6 -78 -29z"/>
<path d="M14717 9579 c-9 -5 -25 -24 -35 -42 -15 -28 -17 -71 -20 -362 -4
-399 -2 -427 43 -472 27 -27 41 -33 74 -33 23 0 55 7 71 15 52 27 57 50 63
295 5 246 17 312 64 362 35 36 69 42 141 24 91 -24 119 -21 153 15 60 65 22
159 -78 193 -58 20 -165 21 -202 2 -15 -8 -42 -31 -59 -50 l-30 -35 -6 26 c-4
13 -18 36 -31 49 -20 19 -34 24 -77 24 -29 0 -61 -5 -71 -11z"/>
<path d="M18794 9556 c-27 -27 -34 -42 -34 -72 0 -25 48 -160 145 -403 80
-201 145 -375 145 -386 -1 -33 -63 -139 -90 -152 -17 -8 -47 -10 -92 -6 -54 5
-72 2 -93 -11 -37 -24 -49 -62 -35 -108 18 -61 51 -73 200 -73 143 0 178 12
242 83 49 54 67 95 249 569 183 477 192 512 141 562 -26 27 -38 31 -82 31 -85
0 -83 4 -230 -413 -40 -114 -74 -206 -75 -205 -2 2 -44 121 -94 266 -97 281
-103 295 -134 330 -16 18 -31 22 -75 22 -48 0 -58 -4 -88 -34z"/>
<path d="M9030 8056 c0 -7 -9 -16 -20 -19 -16 -4 -20 -13 -20 -49 0 -57 9 -88
26 -88 8 0 14 -9 14 -20 0 -13 7 -20 20 -20 16 0 20 -7 20 -30 0 -19 5 -30 14
-30 8 0 17 -13 21 -30 4 -16 13 -30 21 -30 8 0 14 -8 14 -19 0 -10 9 -21 20
-24 15 -4 20 -14 20 -36 0 -20 5 -31 14 -31 8 0 17 -13 21 -30 4 -16 13 -30
21 -30 8 0 14 -9 14 -20 0 -13 7 -20 20 -20 16 0 20 -7 20 -35 0 -24 5 -35 15
-35 8 0 15 -7 15 -15 0 -8 9 -15 20 -15 16 0 20 -7 20 -35 0 -28 4 -35 20 -35
16 0 20 -7 20 -30 0 -23 4 -30 20 -30 16 0 20 -7 20 -35 0 -23 5 -35 14 -35 7
0 16 -9 19 -20 3 -11 12 -20 21 -20 11 0 16 -9 16 -30 0 -23 4 -30 20 -30 16
0 20 -7 20 -30 0 -20 5 -30 15 -30 8 0 15 -9 15 -20 0 -13 7 -20 20 -20 16 0
20 -7 20 -31 0 -22 5 -32 20 -36 14 -4 20 -14 20 -33 0 -19 6 -29 20 -33 11
-3 20 -12 20 -21 0 -9 7 -16 15 -16 10 0 15 -10 15 -30 0 -23 4 -30 20 -30 16
0 20 -7 20 -35 0 -25 4 -35 16 -35 9 0 18 -9 21 -20 3 -11 12 -20 19 -20 9 0
14 -11 14 -30 0 -23 4 -30 20 -30 16 0 20 -7 20 -35 0 -28 4 -35 20 -35 11 0
20 -7 20 -15 0 -8 6 -15 14 -15 8 0 17 -15 20 -35 4 -21 13 -35 21 -35 10 0
15 -10 15 -30 0 -21 5 -30 16 -30 9 0 18 -9 21 -20 3 -11 11 -20 18 -20 8 0
16 -13 20 -30 4 -16 13 -30 21 -30 8 0 14 -9 14 -20 0 -13 7 -20 20 -20 16 0
20 -7 20 -35 0 -24 5 -35 14 -35 8 0 17 -13 21 -30 4 -16 13 -30 21 -30 8 0
14 -9 14 -20 0 -13 7 -20 20 -20 16 0 20 -7 20 -35 0 -28 4 -35 20 -35 16 0
20 -7 20 -30 0 -20 5 -30 15 -30 8 0 15 -9 15 -20 0 -13 7 -20 20 -20 15 0 20
-7 20 -29 0 -20 6 -30 20 -34 15 -4 20 -14 20 -36 0 -20 5 -31 14 -31 7 0 16
-9 19 -20 3 -11 12 -20 21 -20 11 0 16 -9 16 -30 0 -23 4 -30 20 -30 15 0 20
-7 20 -29 0 -20 6 -30 20 -34 11 -3 20 -12 20 -21 0 -9 7 -16 15 -16 10 0 15
-10 15 -31 0 -22 5 -32 20 -36 14 -4 20 -14 20 -34 0 -22 5 -29 20 -29 13 0
20 -7 20 -20 0 -11 7 -20 15 -20 10 0 15 -10 15 -30 0 -23 4 -30 20 -30 13 0
20 -7 20 -20 0 -11 7 -20 15 -20 8 0 17 -14 21 -35 3 -19 12 -35 19 -35 8 0
16 -13 20 -30 4 -16 13 -30 21 -30 8 0 14 -9 14 -20 0 -11 7 -20 15 -20 9 0
18 -12 22 -30 3 -16 11 -30 19 -30 7 0 16 -16 20 -35 3 -19 12 -35 19 -35 7 0
15 -9 18 -20 3 -11 12 -20 21 -20 12 0 16 -10 16 -45 0 -38 -3 -45 -20 -45
-11 0 -20 -6 -20 -14 0 -8 -15 -17 -35 -20 -21 -4 -35 -13 -35 -21 0 -10 -11
-15 -35 -15 -23 0 -35 -5 -35 -14 0 -8 -16 -16 -40 -20 -26 -4 -40 -11 -40
-21 0 -8 -9 -15 -20 -15 -11 0 -20 -7 -20 -15 0 -10 -11 -15 -35 -15 -23 0
-35 -5 -35 -14 0 -8 -15 -17 -34 -20 -19 -4 -37 -13 -40 -21 -3 -8 -15 -15
-26 -15 -11 0 -20 -7 -20 -15 0 -10 -11 -15 -35 -15 -24 0 -35 -5 -35 -15 0
-10 -11 -15 -35 -15 -28 0 -35 -4 -35 -20 0 -16 -7 -20 -35 -20 -24 0 -35 -5
-35 -15 0 -11 -11 -15 -40 -15 -29 0 -40 -4 -40 -15 0 -8 -7 -15 -16 -15 -9 0
-18 -9 -21 -20 -3 -11 -12 -20 -19 -20 -8 0 -14 -7 -14 -15 0 -8 7 -15 15 -15
8 0 15 -9 15 -20 0 -13 7 -20 20 -20 11 0 20 -7 20 -15 0 -8 9 -15 20 -15 11
0 20 -7 20 -15 0 -10 11 -15 35 -15 25 0 35 -4 35 -16 0 -9 9 -18 20 -21 11
-3 20 -9 20 -14 0 -5 18 -12 40 -15 24 -4 40 -12 40 -20 0 -9 12 -14 35 -14
24 0 35 -5 35 -15 0 -8 14 -17 35 -21 20 -3 35 -12 35 -20 0 -9 12 -14 35 -14
24 0 35 -5 35 -15 0 -8 9 -15 20 -15 11 0 23 -7 26 -15 3 -8 21 -17 40 -21 19
-3 34 -10 34 -15 0 -4 16 -11 35 -15 20 -3 35 -12 35 -20 0 -9 12 -14 34 -14
25 0 35 -5 39 -20 4 -15 14 -20 41 -20 25 0 36 -4 36 -15 0 -8 9 -15 20 -15
11 0 20 -7 20 -15 0 -10 11 -15 35 -15 23 0 35 -5 35 -14 0 -8 15 -17 35 -20
21 -4 35 -13 35 -21 0 -11 12 -15 40 -15 29 0 40 -4 40 -15 0 -8 7 -15 15 -15
9 0 18 -7 21 -15 3 -8 21 -17 40 -21 19 -3 34 -12 34 -20 0 -9 12 -14 35 -14
24 0 35 -5 35 -15 0 -11 11 -15 36 -15 27 0 37 -5 41 -20 4 -15 14 -20 39 -20
24 0 34 -5 34 -15 0 -10 11 -15 35 -15 23 0 35 -5 35 -14 0 -8 15 -17 35 -20
21 -4 35 -13 35 -21 0 -9 10 -15 25 -15 16 0 25 -6 25 -15 0 -10 11 -15 35
-15 24 0 35 -5 35 -15 0 -10 11 -15 35 -15 28 0 35 -4 35 -20 0 -16 7 -20 35
-20 24 0 35 -5 35 -15 0 -9 9 -15 25 -15 15 0 25 -6 25 -15 0 -8 14 -17 35
-21 20 -3 35 -12 35 -20 0 -9 12 -14 35 -14 24 0 35 -5 35 -15 0 -10 10 -15
34 -15 25 0 35 -5 39 -20 4 -15 14 -20 41 -20 25 0 36 -4 36 -15 0 -8 9 -15
20 -15 11 0 20 -7 20 -15 0 -10 11 -15 35 -15 24 0 35 -5 35 -15 0 -8 14 -17
35 -21 20 -3 35 -12 35 -20 0 -9 12 -14 35 -14 24 0 35 -5 35 -15 0 -8 9 -15
20 -15 11 0 23 -7 26 -15 3 -8 21 -17 40 -21 19 -3 34 -12 34 -20 0 -9 12 -14
35 -14 23 0 35 -5 35 -14 0 -9 15 -17 40 -21 25 -4 40 -12 40 -21 0 -9 12 -14
35 -14 24 0 35 -5 35 -15 0 -8 9 -15 20 -15 11 0 20 -7 20 -15 0 -10 11 -15
35 -15 23 0 35 -5 35 -14 0 -8 15 -17 35 -20 21 -4 35 -13 35 -21 0 -11 12
-15 40 -15 27 0 40 -4 40 -14 0 -8 15 -17 35 -20 21 -4 35 -13 35 -21 0 -8 9
-15 20 -15 11 0 20 -7 20 -15 0 -11 11 -15 40 -15 27 0 40 -4 40 -14 0 -8 15
-17 35 -20 21 -4 35 -13 35 -21 0 -10 11 -15 35 -15 24 0 35 -5 35 -15 0 -10
11 -15 35 -15 23 0 35 -5 35 -14 0 -9 15 -17 40 -21 25 -4 40 -12 40 -21 0 -8
9 -14 20 -14 11 0 20 -7 20 -15 0 -10 10 -15 34 -15 25 0 35 -5 39 -20 4 -15
14 -20 36 -20 21 0 31 -5 31 -15 0 -11 11 -15 40 -15 29 0 40 -4 40 -15 0 -10
11 -15 35 -15 28 0 35 -4 35 -20 0 -13 7 -20 20 -20 11 0 20 -7 20 -15 0 -10
11 -15 35 -15 24 0 35 -5 35 -15 0 -11 11 -15 40 -15 33 0 40 -3 40 -20 0 -16
7 -20 35 -20 24 0 35 -5 35 -15 0 -8 9 -15 20 -15 11 0 20 -6 20 -14 0 -8 15
-17 35 -20 21 -4 35 -13 35 -21 0 -10 11 -15 34 -15 21 0 36 -6 40 -15 3 -9
19 -15 41 -15 28 0 35 -4 35 -20 0 -16 7 -20 35 -20 24 0 35 -5 35 -15 0 -8 9
-15 20 -15 11 0 20 -7 20 -15 0 -10 11 -15 35 -15 23 0 35 -5 35 -14 0 -9 15
-17 40 -21 25 -4 40 -12 40 -21 0 -11 22 -14 110 -14 88 0 110 3 110 14 0 9
15 17 40 21 25 4 40 12 40 21 0 9 12 14 35 14 24 0 35 5 35 15 0 8 9 15 20 15
11 0 20 7 20 15 0 10 11 15 35 15 28 0 35 4 35 20 0 17 7 20 40 20 29 0 40 4
40 15 0 8 7 15 15 15 8 0 15 7 15 15 0 11 11 15 36 15 27 0 37 5 41 20 4 15
14 20 39 20 24 0 34 5 34 15 0 10 11 15 35 15 28 0 35 4 35 20 0 17 7 20 40
20 27 0 40 4 40 14 0 8 15 17 35 20 19 4 35 11 35 16 0 6 9 10 20 10 13 0 20
7 20 20 0 17 7 20 40 20 29 0 40 4 40 15 0 10 11 15 35 15 23 0 35 5 35 14 0
8 15 17 35 20 21 4 35 13 35 21 0 10 11 15 35 15 24 0 35 5 35 15 0 8 9 15 20
15 11 0 20 6 20 14 0 9 15 17 40 21 25 4 40 12 40 21 0 9 12 14 35 14 24 0 35
5 35 15 0 10 11 15 35 15 23 0 35 5 35 14 0 8 15 17 35 20 21 4 35 13 35 21 0
11 12 15 40 15 29 0 40 4 40 15 0 8 9 15 20 15 11 0 20 7 20 15 0 8 14 17 35
21 20 3 35 12 35 20 0 10 13 14 40 14 27 0 40 4 40 14 0 8 15 17 35 20 21 4
35 13 35 21 0 10 11 15 35 15 24 0 35 5 35 15 0 8 9 15 20 15 11 0 20 7 20 15
0 10 11 15 35 15 23 0 35 5 35 14 0 9 15 17 40 21 25 4 40 12 40 21 0 9 12 14
35 14 23 0 35 5 35 14 0 8 15 17 34 20 19 4 37 13 40 21 3 8 15 15 26 15 11 0
20 7 20 15 0 10 11 15 35 15 23 0 35 5 35 14 0 8 15 17 35 20 21 4 35 13 35
21 0 10 11 15 35 15 24 0 35 5 35 15 0 8 9 15 20 15 11 0 20 7 20 15 0 11 11
15 36 15 27 0 37 5 41 20 4 15 14 20 39 20 24 0 34 5 34 15 0 10 11 15 35 15
23 0 35 5 35 14 0 8 15 17 35 20 21 4 35 13 35 21 0 9 10 15 25 15 16 0 25 6
25 15 0 10 11 15 35 15 24 0 35 5 35 15 0 8 14 17 35 21 20 3 35 12 35 20 0 9
12 14 35 14 24 0 35 5 35 15 0 9 9 15 25 15 15 0 25 6 25 15 0 8 14 17 35 21
20 3 35 12 35 20 0 9 12 14 35 14 24 0 35 5 35 15 0 10 10 15 34 15 25 0 35 5
39 20 4 15 14 20 36 20 21 0 31 5 31 15 0 9 9 15 25 15 16 0 25 6 25 15 0 10
11 15 35 15 24 0 35 5 35 15 0 8 14 17 35 21 20 3 35 12 35 20 0 10 13 14 40
14 28 0 40 4 40 15 0 8 14 17 35 21 20 3 35 12 35 20 0 8 9 14 20 14 11 0 20
7 20 15 0 10 11 15 35 15 23 0 35 5 35 14 0 9 15 17 40 21 25 4 40 12 40 21 0
9 12 14 35 14 24 0 35 5 35 15 0 8 9 15 20 15 11 0 20 7 20 15 0 10 11 15 35
15 28 0 35 4 35 20 0 17 7 20 40 20 28 0 40 4 40 14 0 8 14 17 30 21 17 4 30
11 30 16 0 5 9 9 21 9 12 0 23 8 26 20 4 15 14 20 39 20 24 0 34 5 34 15 0 10
11 15 35 15 24 0 35 5 35 15 0 11 11 15 36 15 27 0 37 5 41 20 4 15 14 20 39
20 24 0 34 5 34 15 0 8 9 15 20 15 11 0 20 7 20 15 0 8 6 15 14 15 23 0 29 18
21 66 -6 42 -8 44 -41 44 -24 0 -34 5 -34 15 0 8 -9 15 -20 15 -11 0 -20 7
-20 15 0 10 -11 15 -35 15 -28 0 -35 4 -35 20 0 16 -7 20 -35 20 -24 0 -35 5
-35 15 0 10 -11 15 -35 15 -24 0 -35 5 -35 15 0 9 -9 15 -21 15 -12 0 -23 8
-26 20 -4 15 -14 20 -39 20 -24 0 -34 5 -34 15 0 10 -10 15 -34 15 -25 0 -35
5 -39 20 -4 14 -14 20 -35 20 -17 0 -32 6 -36 15 -3 8 -15 15 -26 15 -11 0
-20 7 -20 15 0 10 -11 15 -35 15 -23 0 -35 5 -35 14 0 8 -15 17 -34 20 -19 4
-37 13 -40 21 -3 9 -18 15 -36 15 -19 0 -30 5 -30 14 0 8 -16 16 -40 20 -26 4
-40 11 -40 21 0 10 -11 15 -35 15 -24 0 -35 5 -35 15 0 8 -9 15 -20 15 -11 0
-20 7 -20 15 0 11 -11 15 -35 15 -22 0 -38 6 -41 15 -3 8 -21 17 -40 21 -19 3
-34 12 -34 20 0 9 -12 14 -35 14 -23 0 -35 5 -35 14 0 8 -15 17 -35 20 -19 4
-35 11 -35 16 0 4 -18 11 -40 15 -25 4 -40 12 -40 21 0 8 -9 14 -20 14 -11 0
-20 7 -20 15 0 10 -11 15 -35 15 -23 0 -35 5 -35 14 0 8 -15 17 -35 20 -31 6
-35 11 -35 36 0 19 5 30 14 30 8 0 17 15 20 35 4 21 13 35 21 35 8 0 15 7 15
15 0 8 6 15 14 15 8 0 17 15 20 35 4 21 13 35 21 35 10 0 15 11 15 31 0 22 5
32 20 36 14 4 20 14 20 34 0 22 5 29 20 29 13 0 20 7 20 20 0 11 7 20 15 20 8
0 17 14 21 35 3 20 12 35 20 35 9 0 14 11 14 30 0 23 4 30 20 30 15 0 20 7 20
29 0 20 6 30 20 34 12 3 20 14 20 26 0 12 6 21 15 21 9 0 15 10 15 26 0 17 6
28 20 31 14 4 20 14 20 34 0 18 5 29 14 29 7 0 16 9 19 20 3 11 12 20 21 20
11 0 16 9 16 31 0 22 5 32 20 36 14 4 20 14 20 34 0 22 5 29 20 29 16 0 20 7
20 35 0 23 5 35 14 35 7 0 16 9 19 20 3 11 12 20 21 20 11 0 16 9 16 30 0 23
5 30 19 30 10 0 19 6 18 13 -1 38 5 57 17 57 8 0 17 14 21 30 4 17 13 30 21
30 8 0 14 9 14 20 0 11 7 20 15 20 8 0 17 14 21 35 3 19 12 35 19 35 8 0 16
14 20 30 4 16 12 30 20 30 7 0 15 14 19 30 3 18 12 30 21 30 8 0 15 9 15 20 0
13 7 20 20 20 16 0 20 7 20 35 0 23 5 35 14 35 7 0 16 14 20 30 3 18 12 30 21
30 8 0 15 9 15 20 0 11 7 20 15 20 8 0 17 14 21 35 3 19 12 35 19 35 8 0 16
13 20 30 4 17 13 30 21 30 9 0 14 11 14 35 0 28 4 35 20 35 13 0 20 7 20 20 0
11 6 20 14 20 8 0 17 14 21 30 4 17 12 30 20 30 7 0 15 14 19 30 3 18 12 30
21 30 8 0 15 9 15 20 0 11 6 20 14 20 8 0 17 15 20 35 4 21 13 35 21 35 10 0
15 10 15 30 0 23 4 30 20 30 16 0 20 7 20 35 0 28 4 35 20 35 13 0 20 7 20 20
0 11 6 20 14 20 8 0 17 14 21 30 4 17 13 30 21 30 9 0 14 11 14 35 0 28 4 35
20 35 15 0 20 7 20 29 0 20 6 30 20 34 11 3 20 12 20 21 0 9 7 16 15 16 10 0
15 10 15 29 0 20 6 30 20 34 11 3 20 12 20 21 0 9 6 16 14 16 15 0 26 42 26
97 0 23 -6 36 -17 40 -10 4 -21 11 -25 17 -5 8 -1548 12 -5308 14 -4512 2
-5300 0 -5300 -12z m10313 -193 c2 -5 2 -27 -1 -50 -3 -29 -9 -43 -19 -43 -8
0 -17 -9 -20 -20 -3 -11 -12 -20 -19 -20 -9 0 -14 -11 -14 -29 0 -20 -6 -30
-20 -34 -15 -4 -20 -14 -20 -36 0 -22 -5 -31 -16 -31 -9 0 -18 -9 -21 -20 -3
-11 -12 -20 -19 -20 -9 0 -14 -11 -14 -30 0 -23 -4 -30 -20 -30 -16 0 -20 -7
-20 -35 0 -28 -4 -35 -20 -35 -16 0 -20 -7 -20 -30 0 -20 -5 -30 -15 -30 -8 0
-15 -9 -15 -20 0 -13 -7 -20 -20 -20 -16 0 -20 -7 -20 -35 0 -28 -4 -35 -20
-35 -16 0 -20 -7 -20 -30 0 -19 -5 -30 -14 -30 -8 0 -17 -15 -20 -35 -4 -21
-13 -35 -21 -35 -8 0 -15 -9 -15 -20 0 -13 -7 -20 -20 -20 -16 0 -20 -7 -20
-30 0 -23 -4 -30 -20 -30 -16 0 -20 -7 -20 -30 0 -20 -5 -30 -15 -30 -8 0 -15
-8 -15 -19 0 -10 -9 -21 -20 -24 -15 -4 -20 -14 -20 -36 0 -20 -5 -31 -14 -31
-8 0 -17 -13 -21 -30 -4 -16 -13 -30 -21 -30 -8 0 -14 -9 -14 -20 0 -13 -7
-20 -20 -20 -16 0 -20 -7 -20 -35 0 -28 -4 -35 -20 -35 -16 0 -20 -7 -20 -30
0 -20 -5 -30 -15 -30 -8 0 -17 -14 -21 -35 -3 -20 -12 -35 -20 -35 -8 0 -14
-9 -14 -20 0 -11 -7 -20 -15 -20 -9 0 -18 -12 -21 -30 -4 -16 -12 -30 -20 -30
-7 0 -16 -16 -20 -35 -3 -20 -12 -35 -20 -35 -9 0 -14 -11 -14 -30 0 -23 -4
-30 -20 -30 -13 0 -20 -7 -20 -20 0 -11 -6 -20 -14 -20 -8 0 -17 -13 -21 -30
-4 -16 -12 -30 -20 -30 -7 0 -16 -16 -19 -35 -4 -21 -13 -35 -21 -35 -8 0 -15
-9 -15 -20 0 -11 -6 -20 -14 -20 -8 0 -17 -13 -21 -30 -4 -16 -12 -30 -20 -30
-7 0 -16 -16 -19 -35 -4 -21 -13 -35 -21 -35 -10 0 -15 -10 -15 -30 0 -23 -4
-30 -20 -30 -16 0 -20 -7 -20 -35 0 -28 -4 -35 -20 -35 -13 0 -20 -7 -20 -20
0 -11 -7 -20 -15 -20 -10 0 -15 -10 -15 -30 0 -23 -4 -30 -20 -30 -16 0 -20
-7 -20 -35 0 -28 -4 -35 -20 -35 -13 0 -20 -7 -20 -20 0 -11 -7 -20 -15 -20
-10 0 -15 -10 -15 -30 0 -23 -4 -30 -20 -30 -16 0 -20 -7 -20 -35 0 -24 -5
-35 -14 -35 -8 0 -17 -13 -21 -30 -4 -16 -13 -30 -21 -30 -8 0 -14 -9 -14 -20
0 -13 -7 -20 -20 -20 -11 0 -20 -7 -20 -15 0 -8 -9 -15 -20 -15 -11 0 -20 7
-20 15 0 8 -14 17 -35 21 -20 3 -35 12 -35 20 0 8 -9 14 -20 14 -11 0 -20 7
-20 15 0 10 -11 15 -35 15 -23 0 -35 5 -35 14 0 8 -15 17 -34 20 -19 4 -37 13
-40 21 -3 9 -19 15 -41 15 -24 0 -35 4 -35 15 0 8 -9 15 -20 15 -11 0 -20 7
-20 15 0 8 -14 17 -35 21 -19 3 -35 10 -35 15 0 5 -18 12 -40 15 -24 4 -40 12
-40 20 0 9 -12 14 -35 14 -24 0 -35 5 -35 15 0 8 -14 17 -35 21 -20 3 -35 12
-35 20 0 9 -12 14 -35 14 -24 0 -35 5 -35 15 0 8 -9 15 -20 15 -11 0 -20 6
-20 14 0 9 -15 17 -40 21 -25 4 -40 12 -40 21 0 9 -12 14 -35 14 -23 0 -35 5
-35 14 0 8 -15 17 -34 20 -19 4 -37 13 -40 21 -3 8 -13 15 -21 15 -9 0 -23 7
-31 15 -9 8 -26 15 -40 15 -14 0 -24 6 -24 14 0 8 -15 17 -35 20 -19 4 -35 11
-35 16 0 5 -16 12 -35 16 -20 3 -35 12 -35 20 0 9 -12 14 -35 14 -24 0 -35 5
-35 15 0 8 -9 15 -20 15 -11 0 -23 7 -26 15 -3 8 -21 17 -40 21 -19 3 -34 12
-34 20 0 9 -12 14 -35 14 -23 0 -35 5 -35 14 0 8 -15 17 -35 20 -19 4 -35 11
-35 16 0 4 -18 11 -40 15 -25 4 -40 12 -40 21 0 9 -12 14 -35 14 -24 0 -35 5
-35 15 0 8 -9 15 -20 15 -11 0 -20 7 -20 15 0 10 -14 17 -40 21 -24 4 -40 12
-40 20 0 9 -12 14 -35 14 -23 0 -35 5 -35 14 0 8 -15 17 -35 20 -21 4 -35 13
-35 21 0 8 -9 15 -20 15 -11 0 -20 7 -20 15 0 10 -11 15 -35 15 -24 0 -35 5
-35 15 0 11 -11 15 -36 15 -27 0 -37 5 -41 20 -4 15 -14 20 -39 20 -24 0 -34
5 -34 15 0 10 -10 15 -34 15 -25 0 -35 5 -39 20 -3 12 -14 20 -26 20 -12 0
-21 4 -21 10 0 5 -16 12 -35 16 -20 3 -35 12 -35 20 0 9 -12 14 -35 14 -24 0
-35 5 -35 15 0 10 -14 17 -40 21 -24 4 -40 12 -40 20 0 9 -12 14 -35 14 -24 0
-35 5 -35 15 0 10 -11 15 -35 15 -28 0 -35 4 -35 20 0 13 -7 20 -20 20 -11 0
-20 7 -20 15 0 10 -11 15 -35 15 -24 0 -35 5 -35 15 0 10 -11 15 -35 15 -23 0
-35 -5 -35 -14 0 -8 -16 -16 -40 -20 -22 -3 -40 -10 -40 -15 0 -5 -16 -12 -35
-15 -21 -4 -35 -13 -35 -21 0 -9 -10 -15 -25 -15 -16 0 -25 -6 -25 -15 0 -10
-10 -15 -30 -15 -17 0 -33 -6 -36 -14 -3 -8 -21 -17 -40 -20 -20 -4 -34 -13
-34 -21 0 -10 -11 -15 -35 -15 -23 0 -35 -5 -35 -14 0 -8 -15 -17 -35 -20 -19
-4 -35 -11 -35 -16 0 -6 -9 -10 -21 -10 -12 0 -23 -8 -26 -20 -4 -15 -14 -20
-39 -20 -24 0 -34 -5 -34 -15 0 -10 -11 -15 -35 -15 -23 0 -35 -5 -35 -14 0
-8 -15 -17 -35 -20 -21 -4 -35 -13 -35 -21 0 -11 -12 -15 -40 -15 -29 0 -40
-4 -40 -15 0 -8 -9 -15 -20 -15 -11 0 -20 -6 -20 -14 0 -8 -15 -17 -35 -20
-21 -4 -35 -13 -35 -21 0 -11 -12 -15 -40 -15 -27 0 -40 -4 -40 -14 0 -8 -15
-17 -35 -20 -21 -4 -35 -13 -35 -21 0 -8 -9 -15 -20 -15 -11 0 -20 -7 -20 -15
0 -10 -11 -15 -35 -15 -24 0 -35 -5 -35 -15 0 -10 -11 -15 -35 -15 -23 0 -35
-5 -35 -14 0 -9 -15 -17 -40 -21 -25 -4 -40 -12 -40 -21 0 -9 -12 -14 -35 -14
-23 0 -35 -5 -35 -14 0 -8 -15 -17 -34 -20 -19 -4 -37 -13 -40 -21 -3 -8 -15
-15 -26 -15 -11 0 -20 -7 -20 -15 0 -10 -11 -15 -35 -15 -23 0 -35 -5 -35 -14
0 -8 -15 -17 -35 -20 -19 -4 -35 -11 -35 -16 0 -5 -16 -12 -35 -16 -19 -3 -35
-12 -35 -19 0 -7 -16 -16 -35 -19 -19 -4 -35 -11 -35 -16 0 -6 -9 -10 -20 -10
-11 0 -23 -7 -26 -15 -3 -8 -21 -17 -40 -21 -19 -3 -34 -12 -34 -20 0 -9 -12
-14 -35 -14 -23 0 -35 -5 -35 -14 0 -8 -15 -17 -35 -20 -21 -4 -35 -13 -35
-21 0 -11 -12 -15 -40 -15 -29 0 -40 -4 -40 -15 0 -8 -9 -15 -20 -15 -11 0
-20 -7 -20 -15 0 -10 -11 -15 -35 -15 -28 0 -35 -4 -35 -20 0 -17 -7 -20 -40
-20 -27 0 -40 -4 -40 -14 0 -8 -15 -17 -35 -20 -19 -4 -35 -11 -35 -16 0 -6
-9 -10 -20 -10 -13 0 -20 -7 -20 -20 0 -16 -7 -20 -35 -20 -24 0 -35 -5 -35
-15 0 -11 -11 -15 -35 -15 -22 0 -38 -6 -41 -15 -3 -8 -21 -17 -40 -21 -19 -3
-34 -12 -34 -20 0 -9 -12 -14 -35 -14 -24 0 -35 -5 -35 -15 0 -8 -9 -15 -20
-15 -11 0 -20 -6 -20 -14 0 -9 -15 -17 -40 -21 -25 -4 -40 -12 -40 -21 0 -9
-12 -14 -35 -14 -23 0 -35 -5 -35 -14 0 -8 -15 -17 -35 -20 -21 -4 -35 -13
-35 -21 0 -10 -11 -15 -35 -15 -24 0 -35 -5 -35 -15 0 -9 -9 -15 -25 -15 -16
0 -25 -6 -25 -15 0 -10 -10 -15 -30 -15 -18 0 -33 -6 -36 -15 -3 -8 -21 -17
-40 -21 -19 -3 -34 -12 -34 -20 0 -9 -12 -14 -35 -14 -23 0 -35 -5 -35 -14 0
-8 -15 -17 -34 -20 -19 -4 -37 -13 -40 -21 -3 -8 -15 -15 -26 -15 -11 0 -20
-7 -20 -15 0 -10 -11 -15 -35 -15 -24 0 -35 -5 -35 -15 0 -10 -11 -15 -35 -15
-24 0 -35 -5 -35 -15 0 -10 -10 -15 -34 -15 -30 0 -35 4 -41 30 -4 16 -12 30
-20 30 -7 0 -15 14 -18 30 -4 18 -13 30 -22 30 -8 0 -15 9 -15 20 0 11 -7 20
-15 20 -8 0 -17 14 -21 35 -3 19 -12 35 -19 35 -8 0 -16 14 -20 30 -4 17 -13
30 -21 30 -8 0 -14 9 -14 20 0 11 -6 20 -14 20 -8 0 -17 14 -21 30 -4 17 -12
30 -20 30 -7 0 -16 16 -19 35 -4 21 -13 35 -21 35 -8 0 -15 7 -15 16 0 9 -9
18 -20 21 -14 4 -20 14 -20 34 0 19 -5 29 -15 29 -8 0 -15 9 -15 20 0 13 -7
20 -20 20 -16 0 -20 7 -20 30 0 23 -4 30 -20 30 -16 0 -20 7 -20 35 0 28 -4
35 -20 35 -11 0 -20 7 -20 15 0 8 -7 15 -15 15 -10 0 -15 11 -15 35 0 28 -4
35 -20 35 -15 0 -20 7 -20 29 0 20 -6 30 -20 34 -11 3 -20 12 -20 21 0 9 -7
16 -15 16 -10 0 -15 10 -15 31 0 22 -5 32 -20 36 -14 4 -20 14 -20 34 0 20 -5
29 -16 29 -9 0 -18 9 -21 20 -3 11 -12 20 -19 20 -9 0 -14 11 -14 30 0 23 -5
30 -19 30 -14 0 -21 10 -25 35 -4 21 -13 35 -21 35 -8 0 -15 9 -15 20 0 11 -6
20 -14 20 -8 0 -17 14 -21 30 -4 17 -12 30 -20 30 -7 0 -15 14 -18 30 -4 18
-13 30 -22 30 -8 0 -15 9 -15 20 0 11 -7 20 -15 20 -8 0 -17 14 -21 35 -3 19
-12 35 -19 35 -8 0 -16 14 -20 30 -4 17 -13 30 -21 30 -8 0 -14 9 -14 20 0 11
-6 20 -14 20 -8 0 -17 14 -21 30 -4 17 -13 30 -21 30 -8 0 -14 9 -14 20 0 11
7 20 15 20 8 0 15 -9 15 -20 0 -13 7 -20 20 -20 11 0 20 -7 20 -15 0 -10 11
-15 35 -15 23 0 35 -5 35 -14 0 -13 41 -26 85 -26 13 0 25 -5 27 -12 3 -8 39
-14 111 -16 91 -4 108 -2 113 12 3 8 21 18 40 22 19 3 34 12 34 20 0 9 12 14
34 14 29 0 34 4 40 30 3 18 12 30 21 30 8 0 15 9 15 20 0 11 6 20 14 20 22 0
26 34 26 236 l0 191 -112 6 c-143 9 -227 9 -267 1 l-31 -6 0 -99 0 -99 110 0
110 0 0 -65 c0 -51 -3 -65 -15 -65 -8 0 -15 -7 -15 -16 0 -9 -9 -18 -20 -21
-11 -3 -20 -9 -20 -14 0 -4 -16 -11 -35 -15 -20 -3 -35 -12 -35 -20 0 -8 -9
-14 -20 -14 -11 0 -20 6 -20 14 0 9 -17 15 -51 18 -34 4 -55 11 -61 22 -5 9
-16 16 -23 16 -8 0 -15 6 -15 14 0 7 -9 16 -20 19 -14 3 -20 14 -20 31 0 16
-6 26 -14 26 -11 0 -16 22 -22 90 -5 66 -10 90 -20 90 -10 0 -14 14 -14 45 0
33 4 45 15 45 10 0 15 10 15 33 0 68 13 137 25 137 7 0 16 16 19 35 6 31 11
35 36 35 19 0 30 5 30 14 0 9 17 15 51 18 73 7 139 -2 139 -18 0 -8 9 -14 20
-14 11 0 20 -7 20 -15 0 -8 9 -15 20 -15 13 0 20 -7 20 -20 0 -11 7 -20 15
-20 8 0 15 -7 15 -15 0 -11 11 -15 40 -15 29 0 40 -4 40 -15 0 -8 7 -15 15
-15 8 0 15 7 15 15 0 11 11 15 40 15 l40 0 0 65 c0 58 -2 65 -20 65 -16 0 -20
7 -20 35 0 28 -4 35 -20 35 -13 0 -20 7 -20 20 0 11 -7 20 -15 20 -8 0 -15 7
-15 15 0 8 -9 15 -20 15 -11 0 -20 7 -20 15 0 10 -11 15 -35 15 -23 0 -35 5
-35 14 0 21 -49 26 -200 19 -107 -5 -140 -9 -140 -20 0 -8 -12 -13 -35 -13
-24 0 -35 -5 -35 -15 0 -8 -9 -15 -20 -15 -13 0 -20 -7 -20 -20 0 -11 -7 -20
-15 -20 -8 0 -15 -7 -15 -15 0 -8 -8 -15 -19 -15 -14 0 -21 -10 -25 -35 -4
-21 -13 -35 -21 -35 -11 0 -15 -13 -15 -50 0 -38 -4 -50 -15 -50 -12 0 -15
-19 -15 -115 0 -96 3 -115 15 -115 13 0 15 -21 15 -130 0 -109 2 -130 15 -130
8 0 15 -6 15 -12 0 -7 3 -23 6 -35 5 -19 2 -23 -15 -23 -17 0 -21 6 -21 30 0
20 -5 30 -15 30 -8 0 -15 7 -15 16 0 9 -9 18 -20 21 -14 4 -20 14 -20 34 0 22
-5 29 -20 29 -16 0 -20 7 -20 35 0 28 -4 35 -20 35 -13 0 -20 7 -20 20 0 11
-7 20 -15 20 -10 0 -15 10 -15 30 0 23 -4 30 -20 30 -15 0 -20 7 -20 29 0 20
-6 30 -20 34 -15 4 -20 14 -20 36 0 21 -5 31 -15 31 -8 0 -15 7 -15 16 0 9 -9
18 -20 21 -14 4 -20 14 -20 33 0 19 -6 29 -20 33 -15 4 -20 14 -20 36 0 21 -5
31 -15 31 -8 0 -15 7 -15 15 0 8 -9 15 -20 15 -16 0 -20 7 -20 35 0 28 -4 35
-20 35 -13 0 -20 7 -20 20 0 11 -6 20 -14 20 -8 0 -17 14 -21 30 -4 17 -13 30
-21 30 -9 0 -14 11 -14 31 0 22 -5 32 -20 36 -11 3 -20 14 -20 24 0 11 -6 19
-14 19 -8 0 -17 14 -21 30 -4 17 -12 30 -20 30 -14 0 -29 45 -20 60 7 12
10012 14 10018 3z m-9283 -1103 c0 -20 -5 -30 -15 -30 -10 0 -15 10 -15 30 0
20 5 30 15 30 10 0 15 -10 15 -30z m4850 -115 c0 -10 11 -15 35 -15 23 0 35
-5 35 -14 0 -8 15 -17 35 -20 21 -4 35 -13 35 -21 0 -11 12 -15 40 -15 29 0
40 -4 40 -15 0 -8 9 -15 20 -15 11 0 20 -7 20 -15 0 -8 14 -17 35 -21 20 -3
35 -12 35 -20 0 -9 12 -14 35 -14 23 0 35 -5 35 -14 0 -9 15 -17 40 -21 25 -4
40 -12 40 -21 0 -9 12 -14 35 -14 24 0 35 -5 35 -15 0 -8 9 -15 20 -15 11 0
20 -7 20 -15 0 -10 10 -15 34 -15 25 0 35 -5 39 -20 4 -15 14 -20 41 -20 25 0
36 -4 36 -15 0 -10 11 -15 35 -15 24 0 35 -5 35 -15 0 -8 14 -17 35 -21 20 -3
35 -12 35 -20 0 -8 9 -14 20 -14 11 0 20 -7 20 -15 0 -11 11 -15 40 -15 28 0
40 -4 40 -15 0 -8 14 -17 35 -21 20 -3 35 -12 35 -20 0 -9 12 -14 35 -14 24 0
35 -5 35 -15 0 -8 9 -15 20 -15 11 0 20 -6 20 -14 0 -9 15 -17 40 -21 22 -4
40 -11 40 -15 0 -5 16 -12 35 -16 19 -3 35 -12 35 -19 0 -7 16 -16 35 -19 19
-4 35 -11 35 -15 0 -5 15 -12 34 -15 19 -4 37 -13 40 -21 3 -9 19 -15 41 -15
24 0 35 -4 35 -15 0 -8 9 -15 20 -15 11 0 20 -7 20 -15 0 -8 14 -17 35 -21 20
-3 35 -12 35 -20 0 -9 12 -14 35 -14 24 0 35 -5 35 -15 0 -9 9 -15 24 -15 14
0 31 -7 40 -15 8 -8 22 -15 31 -15 9 0 19 -9 22 -20 4 -15 14 -20 39 -20 24 0
34 -5 34 -15 0 -10 11 -15 35 -15 23 0 35 -5 35 -14 0 -9 15 -17 40 -21 25 -4
40 -12 40 -21 0 -9 12 -14 35 -14 24 0 35 -5 35 -15 0 -8 9 -15 20 -15 11 0
20 -7 20 -15 0 -8 14 -17 35 -21 20 -3 35 -12 35 -20 0 -10 13 -14 40 -14 27
0 40 -4 40 -14 0 -8 15 -17 35 -20 21 -4 35 -13 35 -21 0 -10 11 -15 35 -15
24 0 35 -5 35 -15 0 -8 9 -15 20 -15 11 0 20 -6 20 -14 0 -9 15 -17 40 -21 22
-4 40 -11 40 -15 0 -5 16 -12 35 -16 20 -3 35 -12 35 -20 0 -9 12 -14 35 -14
23 0 35 -5 35 -14 0 -8 15 -17 34 -20 19 -4 37 -13 40 -21 3 -8 15 -15 26 -15
11 0 20 -7 20 -15 0 -10 11 -15 35 -15 24 0 35 -5 35 -15 0 -8 14 -17 34 -21
19 -3 37 -12 40 -20 3 -8 19 -14 36 -14 19 0 30 -5 30 -14 0 -9 15 -17 40 -21
25 -4 40 -12 40 -21 0 -8 9 -14 20 -14 11 0 20 -4 20 -10 0 -5 16 -12 35 -16
19 -3 35 -12 35 -19 0 -7 16 -16 35 -19 19 -4 35 -11 35 -15 0 -5 15 -12 34
-15 19 -4 37 -13 40 -21 3 -8 15 -15 26 -15 11 0 20 -7 20 -15 0 -10 11 -15
35 -15 23 0 35 -5 35 -14 0 -8 15 -17 35 -20 21 -4 35 -13 35 -21 0 -11 12
-15 40 -15 27 0 40 -4 40 -14 0 -8 15 -17 35 -20 19 -4 35 -11 35 -15 0 -5 16
-12 35 -15 21 -4 35 -13 35 -21 0 -10 11 -15 35 -15 23 0 35 -5 35 -14 0 -8
16 -16 40 -20 26 -4 40 -11 40 -21 0 -8 9 -15 20 -15 11 0 20 -7 20 -15 0 -10
11 -15 35 -15 24 0 35 -5 35 -15 0 -11 11 -15 36 -15 27 0 37 -5 41 -20 4 -15
14 -20 39 -20 24 0 34 -5 34 -15 0 -8 9 -15 20 -15 11 0 20 -7 20 -15 0 -10
11 -15 35 -15 23 0 35 -5 35 -14 0 -8 15 -17 35 -20 30 -6 35 -11 35 -36 0
-25 -5 -30 -35 -36 -19 -3 -35 -10 -35 -15 0 -5 -18 -12 -40 -15 -24 -4 -40
-12 -40 -20 0 -9 -12 -14 -35 -14 -24 0 -35 -5 -35 -15 0 -8 -14 -17 -35 -21
-20 -3 -35 -12 -35 -20 0 -9 -12 -14 -35 -14 -24 0 -35 -5 -35 -15 0 -8 -9
-15 -20 -15 -11 0 -20 -6 -20 -14 0 -9 -15 -17 -40 -21 -22 -4 -40 -11 -40
-15 0 -5 -16 -12 -35 -16 -20 -3 -35 -12 -35 -20 0 -9 -12 -14 -35 -14 -23 0
-35 -5 -35 -14 0 -9 -15 -17 -40 -21 -25 -4 -40 -12 -40 -21 0 -9 -12 -14 -35
-14 -24 0 -35 -5 -35 -15 0 -8 -9 -15 -20 -15 -11 0 -20 -6 -20 -14 0 -8 -15
-17 -35 -20 -21 -4 -35 -13 -35 -21 0 -11 -12 -15 -40 -15 -27 0 -40 -4 -40
-14 0 -8 -15 -17 -35 -20 -19 -4 -35 -11 -35 -16 0 -5 -16 -12 -35 -16 -20 -3
-35 -12 -35 -20 0 -8 -9 -14 -20 -14 -11 0 -20 -7 -20 -15 0 -11 -11 -15 -35
-15 -22 0 -38 -6 -41 -15 -3 -8 -21 -17 -40 -21 -19 -3 -34 -12 -34 -20 0 -9
-12 -14 -35 -14 -23 0 -35 -5 -35 -14 0 -8 -15 -17 -35 -20 -21 -4 -35 -13
-35 -21 0 -9 -10 -15 -25 -15 -16 0 -25 -6 -25 -15 0 -10 -11 -15 -35 -15 -24
0 -35 -5 -35 -15 0 -10 -11 -15 -35 -15 -28 0 -35 -4 -35 -20 0 -16 -7 -20
-35 -20 -24 0 -35 -5 -35 -15 0 -9 -9 -15 -25 -15 -16 0 -25 -6 -25 -15 0 -10
-10 -15 -30 -15 -18 0 -33 -6 -36 -15 -3 -8 -21 -17 -40 -21 -19 -3 -34 -12
-34 -20 0 -9 -12 -14 -35 -14 -23 0 -35 -5 -35 -14 0 -8 -15 -17 -34 -20 -19
-4 -37 -13 -40 -21 -3 -8 -15 -15 -26 -15 -11 0 -20 -7 -20 -15 0 -10 -11 -15
-35 -15 -23 0 -35 -5 -35 -14 0 -8 -15 -17 -34 -20 -19 -4 -37 -13 -40 -21 -3
-9 -18 -15 -36 -15 -19 0 -30 -5 -30 -14 0 -9 -15 -17 -40 -21 -25 -4 -40 -12
-40 -21 0 -8 -9 -14 -20 -14 -11 0 -20 -4 -20 -10 0 -5 -16 -12 -35 -16 -20
-3 -35 -12 -35 -20 0 -9 -12 -14 -35 -14 -23 0 -35 -5 -35 -14 0 -8 -15 -17
-34 -20 -19 -4 -37 -13 -40 -21 -3 -9 -19 -15 -41 -15 -24 0 -35 -4 -35 -15 0
-8 -9 -15 -20 -15 -11 0 -20 -6 -20 -14 0 -8 -15 -17 -35 -20 -21 -4 -35 -13
-35 -21 0 -11 -12 -15 -40 -15 -27 0 -40 -4 -40 -14 0 -8 -15 -17 -35 -20 -19
-4 -35 -11 -35 -16 0 -5 -16 -12 -35 -16 -20 -3 -35 -12 -35 -20 0 -8 -10 -14
-25 -14 -16 0 -25 -6 -25 -15 0 -10 -10 -15 -30 -15 -18 0 -33 -6 -36 -15 -3
-8 -21 -17 -40 -21 -19 -3 -34 -12 -34 -20 0 -9 -12 -14 -35 -14 -23 0 -35 -5
-35 -14 0 -8 -15 -17 -34 -20 -19 -4 -37 -13 -40 -21 -3 -8 -15 -15 -26 -15
-11 0 -20 -7 -20 -15 0 -10 -11 -15 -35 -15 -24 0 -35 -5 -35 -15 0 -10 -11
-15 -35 -15 -23 0 -35 -5 -35 -14 0 -9 -15 -17 -40 -21 -25 -4 -40 -12 -40
-21 0 -9 -12 -14 -35 -14 -23 0 -35 -5 -35 -14 0 -8 -15 -17 -34 -20 -19 -4
-37 -13 -40 -21 -3 -8 -15 -15 -26 -15 -11 0 -20 -7 -20 -15 0 -10 -11 -15
-35 -15 -24 0 -35 -5 -35 -15 0 -8 -14 -17 -35 -21 -20 -3 -35 -12 -35 -20 0
-8 -9 -14 -20 -14 -11 0 -20 -7 -20 -15 0 -10 -11 -15 -35 -15 -23 0 -35 -5
-35 -14 0 -9 -15 -17 -40 -21 -22 -4 -40 -11 -40 -15 0 -5 -16 -12 -35 -16
-20 -3 -35 -12 -35 -20 0 -9 -12 -14 -35 -14 -23 0 -35 -5 -35 -14 0 -8 -15
-17 -34 -20 -19 -4 -37 -13 -40 -21 -3 -9 -19 -15 -41 -15 -24 0 -35 -4 -35
-15 0 -8 -7 -15 -15 -15 -8 0 -15 7 -15 15 0 8 -9 15 -20 15 -11 0 -23 7 -26
15 -3 8 -21 17 -40 21 -19 3 -34 10 -34 15 0 4 -16 11 -35 15 -19 3 -35 12
-35 19 0 7 -16 16 -35 19 -19 4 -35 11 -35 16 0 4 -18 11 -40 15 -25 4 -40 12
-40 21 0 8 -9 14 -20 14 -11 0 -20 7 -20 15 0 10 -11 15 -35 15 -23 0 -35 5
-35 14 0 8 -15 17 -35 20 -21 4 -35 13 -35 21 0 10 -11 15 -35 15 -24 0 -35 5
-35 15 0 8 -9 15 -20 15 -11 0 -23 7 -26 15 -3 8 -21 17 -40 21 -19 3 -34 12
-34 20 0 9 -12 14 -35 14 -23 0 -35 5 -35 14 0 9 -15 17 -40 21 -25 4 -40 12
-40 21 0 9 -12 14 -35 14 -24 0 -35 5 -35 15 0 10 -11 15 -35 15 -24 0 -35 5
-35 15 0 8 -8 15 -18 15 -10 0 -25 9 -35 20 -9 11 -28 20 -42 20 -16 0 -25 6
-25 15 0 10 -11 15 -35 15 -23 0 -35 5 -35 14 0 8 -15 17 -34 20 -19 4 -37 13
-40 21 -3 9 -18 15 -36 15 -20 0 -30 5 -30 15 0 9 -9 15 -25 15 -15 0 -25 6
-25 14 0 8 -15 17 -35 20 -19 4 -35 11 -35 16 0 5 -16 12 -35 16 -20 3 -35 12
-35 20 0 9 -12 14 -35 14 -23 0 -35 5 -35 14 0 9 -15 17 -40 21 -25 4 -40 12
-40 21 0 9 -12 14 -35 14 -24 0 -35 5 -35 15 0 8 -9 15 -20 15 -11 0 -20 6
-20 14 0 9 -15 17 -40 21 -25 4 -40 12 -40 21 0 9 -12 14 -35 14 -23 0 -35 5
-35 14 0 8 -15 17 -35 20 -19 4 -35 11 -35 16 0 6 -9 10 -20 10 -11 0 -20 6
-20 14 0 8 -15 17 -35 20 -21 4 -35 13 -35 21 0 10 -11 15 -35 15 -22 0 -38 6
-41 15 -3 8 -21 17 -40 21 -19 3 -34 12 -34 20 0 9 -12 14 -35 14 -24 0 -35 5
-35 15 0 8 -9 15 -20 15 -11 0 -23 7 -26 15 -3 8 -21 17 -40 21 -19 3 -34 12
-34 20 0 9 -12 14 -35 14 -23 0 -35 5 -35 14 0 8 -15 17 -34 20 -19 4 -37 13
-40 21 -3 9 -18 15 -36 15 -20 0 -30 5 -30 15 0 9 -9 15 -25 15 -16 0 -25 6
-25 15 0 10 -11 15 -35 15 -24 0 -35 5 -35 15 0 8 -14 17 -35 21 -20 3 -35 12
-35 20 0 9 -12 14 -35 14 -23 0 -35 5 -35 14 0 8 -16 16 -40 20 -26 4 -40 11
-40 21 0 8 -9 15 -20 15 -11 0 -20 7 -20 15 0 10 -11 15 -35 15 -23 0 -35 5
-35 14 0 9 -15 17 -40 21 -25 4 -40 12 -40 21 0 9 -12 14 -35 14 -24 0 -35 5
-35 15 0 10 -10 15 -34 15 -25 0 -35 5 -39 20 -4 14 -14 20 -35 20 -17 0 -32
6 -36 15 -3 8 -15 15 -26 15 -11 0 -20 7 -20 15 0 10 -11 15 -35 15 -24 0 -35
5 -35 15 0 8 -14 17 -35 21 -20 3 -35 12 -35 20 0 9 -12 14 -35 14 -24 0 -35
5 -35 15 0 8 -9 15 -20 15 -11 0 -23 7 -26 15 -3 8 -21 17 -40 21 -19 3 -34
10 -34 15 0 4 -16 11 -35 15 -19 3 -35 12 -35 19 0 7 -16 16 -35 19 -19 4 -35
11 -35 16 0 4 -18 11 -40 15 -25 4 -40 12 -40 21 0 8 -9 14 -20 14 -11 0 -20
7 -20 15 0 10 -11 15 -35 15 -23 0 -35 5 -35 14 0 8 -15 17 -35 20 -21 4 -35
13 -35 21 0 10 -11 15 -35 15 -23 0 -35 5 -35 14 0 8 -16 16 -39 20 -21 3 -41
13 -45 21 -3 9 -18 15 -36 15 -27 0 -30 3 -30 30 0 27 3 30 31 30 22 0 32 5
36 20 4 15 14 20 39 20 24 0 34 5 34 15 0 10 11 15 35 15 24 0 35 5 35 15 0 8
9 15 20 15 11 0 20 6 20 14 0 9 15 17 40 21 25 4 40 12 40 21 0 9 12 14 35 14
24 0 35 5 35 15 0 8 9 15 20 15 11 0 20 7 20 15 0 8 14 17 35 21 20 3 35 12
35 20 0 10 13 14 40 14 28 0 40 4 40 15 0 8 14 17 35 21 20 3 35 12 35 20 0 9
12 14 35 14 24 0 35 5 35 15 0 10 11 15 35 15 24 0 35 5 35 15 0 8 9 15 20 15
11 0 23 7 26 15 3 8 21 17 40 21 19 3 34 12 34 20 0 9 12 14 35 14 23 0 35 5
35 14 0 9 15 17 40 21 25 4 40 12 40 21 0 9 12 14 35 14 23 0 35 5 35 14 0 8
15 17 35 20 19 4 35 11 35 16 0 6 9 10 20 10 11 0 23 7 26 15 3 8 21 17 40 21
19 3 34 12 34 20 0 9 12 14 35 14 24 0 35 5 35 15 0 8 14 17 35 21 20 3 35 12
35 20 0 9 12 14 35 14 24 0 35 5 35 15 0 9 9 15 25 15 15 0 25 6 25 15 0 8 14
17 35 21 20 3 35 12 35 20 0 9 12 14 35 14 23 0 35 5 35 14 0 8 15 17 35 20
19 4 35 11 35 16 0 4 18 11 40 15 25 4 40 12 40 21 0 8 9 14 20 14 11 0 20 7
20 15 0 10 11 15 35 15 24 0 35 5 35 15 0 8 14 17 35 21 20 3 35 12 35 20 0 9
12 14 35 14 24 0 35 5 35 15 0 9 9 15 25 15 15 0 25 6 25 15 0 8 14 17 35 21
20 3 35 12 35 20 0 9 12 14 35 14 23 0 35 5 35 14 0 9 15 17 40 21 25 4 40 12
40 21 0 9 12 14 35 14 24 0 35 5 35 15 0 10 10 15 34 15 25 0 35 5 39 20 3 11
12 20 21 20 9 0 16 4 16 9 0 5 18 12 40 16 25 4 40 12 40 21 0 9 12 14 35 14
23 0 35 5 35 14 0 8 15 17 34 20 19 4 37 13 40 21 3 8 12 15 21 15 8 0 15 7
15 15 0 11 11 15 35 15 21 0 38 6 41 14 3 8 21 17 40 20 20 4 34 13 34 21 0
10 11 15 35 15 23 0 35 5 35 14 0 8 15 17 35 20 19 4 35 11 35 16 0 6 9 10 20
10 11 0 23 7 26 15 3 8 21 17 40 21 19 3 34 12 34 20 0 9 12 14 35 14 23 0 35
5 35 14 0 8 15 17 35 20 21 4 35 13 35 21 0 11 12 15 40 15 29 0 40 4 40 15 0
8 9 15 20 15 11 0 20 6 20 14 0 8 15 17 35 20 21 4 35 13 35 21 0 11 12 15 40
15 29 0 40 4 40 15 0 10 10 15 31 15 22 0 32 5 36 20 4 15 14 20 39 20 24 0
34 5 34 15 0 8 9 15 20 15 11 0 20 7 20 15 0 10 11 15 35 15 23 0 35 5 35 14
0 9 15 17 40 21 25 4 40 12 40 21 0 9 12 14 35 14 23 0 35 5 35 14 0 8 15 17
34 20 19 4 37 13 40 21 3 8 15 15 26 15 11 0 20 7 20 15 0 10 11 15 35 15 24
0 35 5 35 15 0 8 14 17 35 21 20 3 35 12 35 20 0 9 12 14 35 14 24 0 35 5 35
15 0 11 11 15 40 15 29 0 40 -4 40 -15z"/>
<path d="M16980 7754 c0 -9 -9 -18 -20 -21 -14 -4 -20 -14 -20 -33 0 -19 -6
-29 -20 -33 -15 -4 -20 -14 -20 -36 0 -21 -5 -31 -15 -31 -10 0 -15 -10 -15
-27 0 -43 -11 -73 -26 -73 -10 0 -14 -16 -14 -64 0 -55 -3 -64 -20 -69 -17 -4
-20 -14 -20 -56 0 -37 -4 -51 -14 -51 -15 0 -26 -30 -26 -72 0 -17 -5 -28 -14
-28 -9 0 -15 -16 -19 -46 -2 -26 -10 -50 -17 -54 -7 -4 -15 -28 -17 -54 -4
-29 -10 -46 -19 -46 -8 0 -16 -18 -20 -50 -4 -30 -12 -50 -19 -50 -7 0 -15
-20 -19 -50 -5 -34 -11 -50 -21 -50 -8 0 -15 -9 -15 -20 0 -11 -6 -20 -14 -20
-17 0 -26 -22 -26 -66 0 -24 -5 -34 -15 -34 -8 0 -15 -4 -15 -10 0 -5 7 -10
15 -10 8 0 15 -9 15 -20 0 -19 7 -20 115 -20 108 0 115 1 115 20 0 11 7 20 15
20 9 0 15 9 15 23 0 38 12 67 26 67 9 0 14 12 14 35 0 23 5 35 14 35 7 0 16 9
19 20 3 12 14 20 26 20 12 0 21 5 21 10 0 6 14 10 30 10 17 0 30 -4 30 -10 0
-6 60 -10 159 -10 202 0 221 -3 221 -41 0 -19 5 -29 15 -29 10 0 15 -10 15
-27 0 -43 11 -73 26 -73 9 0 14 -12 14 -35 l0 -35 130 0 130 0 0 70 c0 54 -3
70 -14 70 -8 0 -17 14 -21 30 -4 17 -13 30 -21 30 -9 0 -14 11 -14 31 0 22 -5
32 -20 36 -15 4 -20 14 -20 39 0 22 -5 34 -14 34 -14 0 -26 29 -26 68 0 13 -6
22 -15 22 -10 0 -15 10 -15 28 0 42 -11 72 -26 72 -9 0 -14 11 -14 28 0 42
-11 72 -26 72 -10 0 -14 14 -14 50 0 36 -4 50 -14 50 -9 0 -17 15 -21 40 -4
25 -12 40 -21 40 -10 0 -14 13 -14 46 0 37 -4 47 -20 51 -17 4 -20 14 -20 54
0 35 -4 49 -14 49 -16 0 -26 30 -26 83 0 25 -4 37 -14 37 -10 0 -16 13 -18 38
l-3 37 -127 3 c-113 2 -128 1 -128 -14z m140 -440 c0 -9 9 -18 20 -21 12 -3
20 -14 20 -27 0 -37 12 -66 26 -66 9 0 14 -12 14 -35 0 -23 5 -35 14 -35 9 0
15 -16 19 -46 9 -85 11 -84 -129 -84 l-124 0 0 65 c0 48 4 65 14 65 9 0 16 18
20 50 5 34 11 50 21 50 11 0 15 13 15 50 l0 50 35 0 c25 0 35 -4 35 -16z"/>
<path d="M15633 7734 l-23 -5 0 -535 c0 -527 0 -534 20 -534 11 0 20 -6 20
-14 0 -10 42 -15 203 -21 111 -3 204 -11 205 -16 2 -5 75 -9 162 -9 174 0 170
-2 170 66 0 24 5 34 15 34 10 0 15 10 15 30 0 19 -5 30 -14 30 -7 0 -16 13
-19 29 -4 18 -14 31 -29 35 -13 3 -112 6 -220 6 -169 0 -198 2 -198 15 0 11
-11 15 -37 15 -21 0 -43 4 -50 8 -9 6 -13 111 -15 429 -2 232 -6 424 -9 427
-7 8 -169 16 -196 10z"/>
<path d="M17848 7733 l-58 -4 0 -549 0 -550 260 0 c224 0 260 2 260 15 0 12
13 15 55 15 40 0 55 4 55 14 0 8 15 17 35 20 21 4 35 13 35 21 0 8 9 15 20 15
11 0 20 7 20 15 0 8 9 15 20 15 13 0 20 7 20 20 0 11 7 20 15 20 10 0 15 10
15 28 0 42 11 72 26 72 11 0 14 16 14 65 0 50 -3 65 -15 65 -8 0 -17 14 -21
35 -3 19 -12 35 -19 35 -8 0 -16 13 -20 29 -5 22 -14 31 -35 36 -15 3 -31 13
-34 21 -3 8 -12 14 -21 14 -8 0 -15 7 -15 15 0 8 6 15 14 15 7 0 16 14 20 30
3 18 12 30 21 30 8 0 15 9 15 20 0 13 7 20 20 20 17 0 20 7 20 50 0 38 4 50
15 50 8 0 15 7 15 15 0 8 -7 15 -15 15 -10 0 -15 11 -15 35 0 28 -4 35 -20 35
-16 0 -20 7 -20 35 0 24 -5 35 -15 35 -8 0 -15 7 -15 15 0 8 -9 15 -20 15 -11
0 -20 6 -20 14 0 9 -15 17 -40 21 -25 4 -40 12 -40 21 0 11 -17 14 -75 14 -60
0 -75 3 -75 15 0 12 -16 15 -82 15 -46 0 -119 2 -163 4 -44 2 -106 2 -137 -1z
m431 -239 c17 -4 31 -13 31 -20 0 -8 7 -14 15 -14 11 0 15 -12 15 -45 0 -33
-4 -45 -15 -45 -8 0 -15 -9 -15 -20 0 -13 -7 -20 -20 -20 -11 0 -20 -7 -20
-15 0 -10 -11 -15 -35 -15 -20 0 -37 -6 -42 -15 -6 -10 -35 -17 -96 -21 l-87
-7 0 122 0 121 119 0 c65 0 133 -3 150 -6z m-9 -414 c0 -5 16 -12 35 -16 20
-3 35 -12 35 -20 0 -8 9 -14 20 -14 17 0 20 -7 20 -50 0 -43 -3 -50 -20 -50
-11 0 -20 -6 -20 -14 0 -10 -16 -17 -47 -22 -27 -4 -51 -12 -55 -18 -8 -12
-201 -16 -213 -4 -4 4 -10 48 -12 98 -4 86 -3 92 16 97 12 3 21 9 21 14 0 5
50 9 110 9 63 0 110 -4 110 -10z"/>
<path d="M10978 7663 c-16 -4 -29 -41 -26 -73 1 -8 0 -214 0 -457 -2 -386 -4
-443 -17 -443 -8 0 -15 -7 -15 -15 0 -8 6 -15 14 -15 7 0 16 -13 19 -29 6 -26
11 -29 61 -35 66 -9 126 1 126 20 0 8 7 14 15 14 12 0 15 17 15 95 0 78 -3 95
-15 95 -11 0 -15 12 -15 50 0 38 4 50 15 50 12 0 15 13 15 55 l0 55 74 0 74 0
6 -35 c4 -21 13 -35 21 -35 10 0 15 -10 15 -30 0 -19 5 -30 14 -30 8 0 17 -15
20 -35 4 -21 13 -35 21 -35 10 0 15 -11 15 -35 0 -28 4 -35 20 -35 17 0 20 -7
20 -50 0 -43 3 -50 20 -50 13 0 20 -7 20 -20 0 -11 7 -20 15 -20 8 0 15 -4 15
-10 0 -6 38 -10 95 -10 78 0 95 3 95 15 0 8 7 15 15 15 8 0 15 7 15 15 0 8 -7
15 -15 15 -10 0 -15 11 -15 35 0 24 -5 35 -15 35 -8 0 -17 14 -21 35 -3 20
-12 35 -20 35 -9 0 -14 11 -14 30 0 23 -4 30 -20 30 -16 0 -20 7 -20 35 0 28
-4 35 -20 35 -17 0 -20 7 -20 50 0 38 -4 50 -15 50 -10 0 -15 10 -15 29 0 25
5 31 30 36 17 4 30 13 30 21 0 8 9 14 19 14 13 0 21 9 26 30 4 17 12 30 20 30
7 0 16 16 19 35 4 21 13 35 21 35 12 0 15 19 15 100 0 79 -3 100 -14 100 -8 0
-17 15 -20 35 -4 19 -13 35 -20 35 -8 0 -16 9 -19 20 -3 12 -14 20 -25 20 -11
0 -22 5 -24 11 -2 6 -25 13 -51 16 -31 4 -47 10 -47 19 0 11 -21 14 -95 14
-73 0 -95 3 -95 14 0 9 -23 15 -82 19 -90 7 -233 7 -260 0z m412 -218 c0 -11
11 -15 40 -15 29 0 40 -4 40 -15 0 -8 9 -15 20 -15 13 0 20 -7 20 -20 0 -11 7
-20 15 -20 10 0 15 -10 15 -30 0 -23 -4 -30 -20 -30 -11 0 -20 -6 -20 -14 0
-15 -30 -26 -72 -26 -18 0 -28 -5 -28 -15 0 -12 -19 -15 -110 -15 l-110 0 0
100 c0 82 3 100 15 100 8 0 15 7 15 15 0 12 17 15 90 15 73 0 90 -3 90 -15z"/>
<path d="M12863 7663 l-23 -4 0 -285 c0 -246 2 -284 15 -284 13 0 15 -32 15
-229 l0 -229 41 -7 c22 -4 71 -4 110 0 l69 7 2 67 c1 36 2 118 2 181 l1 115
58 3 c42 2 57 7 57 17 0 12 23 15 130 15 109 0 130 2 130 15 0 10 11 15 35 15
28 0 35 4 35 20 0 11 7 20 15 20 8 0 17 14 21 35 3 20 12 35 20 35 11 0 14 26
14 130 0 109 -2 130 -15 130 -10 0 -15 10 -15 31 0 22 -5 32 -20 36 -11 3 -20
12 -20 19 0 8 -9 14 -20 14 -11 0 -20 7 -20 15 0 8 -14 17 -34 21 -19 3 -37
12 -40 20 -3 8 -20 14 -41 14 -24 0 -35 4 -35 15 0 11 -12 15 -50 15 -35 0
-50 4 -50 14 0 9 -25 15 -92 20 -97 6 -258 6 -295 -1z m447 -218 c0 -9 9 -15
25 -15 16 0 25 -6 25 -15 0 -8 7 -15 15 -15 12 0 15 -16 15 -85 0 -78 -2 -85
-20 -85 -11 0 -20 -7 -20 -15 0 -13 -20 -15 -124 -15 -145 0 -136 -9 -136 130
0 137 -6 130 116 130 86 0 104 -3 104 -15z"/>
<path d="M12540 7645 c0 -8 -6 -15 -14 -15 -23 0 -26 -34 -26 -287 0 -209 -2
-243 -15 -243 -12 0 -15 -14 -15 -62 0 -77 -8 -108 -26 -108 -9 0 -14 -12 -14
-35 0 -28 -4 -35 -20 -35 -11 0 -20 -6 -20 -14 0 -18 -36 -24 -100 -18 -33 3
-50 9 -50 18 0 8 -7 14 -15 14 -8 0 -15 6 -15 14 0 7 -9 16 -20 19 -15 4 -20
14 -20 36 0 21 -5 31 -15 31 -11 0 -15 11 -15 38 0 97 -13 192 -26 192 -11 0
-14 28 -14 135 0 108 3 135 14 135 10 0 15 18 18 62 8 107 7 108 -78 108 -59
0 -74 -3 -74 -15 0 -10 -11 -15 -35 -15 -24 0 -35 -5 -35 -15 0 -8 -6 -15 -14
-15 -18 0 -26 -111 -26 -350 0 -216 7 -290 26 -290 10 0 14 -14 14 -50 0 -43
3 -50 20 -50 16 0 20 -7 20 -35 0 -28 4 -35 20 -35 11 0 20 -7 20 -15 0 -8 7
-15 15 -15 9 0 18 -7 21 -15 4 -8 12 -15 20 -15 8 0 14 -9 14 -20 0 -13 7 -20
20 -20 11 0 20 -6 20 -14 0 -8 15 -17 34 -20 19 -4 36 -12 38 -18 3 -7 39 -13
91 -16 73 -4 88 -2 93 12 3 9 16 16 29 16 44 0 85 13 85 26 0 8 9 14 20 14 11
0 20 6 20 14 0 8 13 17 29 21 16 3 32 13 35 21 3 8 12 14 20 14 8 0 17 13 21
30 4 17 12 30 20 30 7 0 16 16 19 35 4 21 13 35 21 35 11 0 15 13 15 50 0 36
4 50 14 50 7 0 16 10 20 23 3 12 6 163 6 335 0 305 0 312 -20 312 -11 0 -20 7
-20 15 0 12 -15 15 -75 15 -60 0 -75 -3 -75 -15z"/>
<path d="M14060 7645 c0 -12 -13 -15 -55 -15 -42 0 -55 -3 -55 -15 0 -8 -9
-15 -20 -15 -13 0 -20 -7 -20 -20 0 -11 -6 -20 -14 -20 -15 0 -26 -30 -26 -72
0 -17 -5 -28 -14 -28 -17 0 -26 -31 -26 -87 0 -29 -4 -43 -13 -43 -11 0 -15
-31 -20 -129 -9 -167 1 -371 18 -371 7 0 16 -16 19 -35 4 -21 13 -35 21 -35 8
0 15 -7 15 -15 0 -8 9 -15 20 -15 11 0 20 -6 20 -14 0 -7 9 -16 20 -19 11 -3
20 -12 20 -21 0 -12 10 -16 35 -16 23 0 35 -5 35 -14 0 -13 41 -26 86 -26 13
0 24 -4 24 -10 0 -13 107 -13 112 0 2 6 27 13 56 17 34 4 52 10 52 19 0 8 9
14 20 14 11 0 20 6 20 14 0 7 9 16 20 19 11 3 20 12 20 21 0 9 6 16 14 16 8 0
17 14 21 30 4 17 13 30 21 30 8 0 14 9 14 20 0 13 7 20 20 20 17 0 20 7 20 50
0 35 4 50 14 50 10 0 15 42 20 199 8 209 3 271 -20 271 -10 0 -14 14 -14 50 0
43 -3 50 -20 50 -15 0 -20 7 -20 29 0 20 -6 30 -20 34 -11 3 -20 12 -20 21 0
12 -10 16 -35 16 -24 0 -35 5 -35 15 0 12 -13 15 -55 15 -42 0 -55 3 -55 15 0
12 -19 15 -110 15 -91 0 -110 -3 -110 -15z m180 -200 c0 -11 11 -15 40 -15 29
0 40 -4 40 -15 0 -8 7 -15 15 -15 10 0 15 -11 15 -35 0 -28 4 -35 20 -35 19 0
20 -7 20 -165 0 -134 -3 -165 -14 -165 -15 0 -26 -30 -26 -71 0 -18 -6 -28
-20 -32 -11 -3 -20 -12 -20 -21 0 -9 -7 -16 -15 -16 -8 0 -15 -7 -15 -15 0
-12 -17 -15 -90 -15 -73 0 -90 3 -90 15 0 8 -9 15 -20 15 -12 0 -20 7 -20 16
0 9 -9 18 -20 21 -16 4 -20 14 -20 49 0 32 -4 44 -15 44 -12 0 -15 16 -15 85
0 69 3 85 15 85 12 0 15 16 15 85 0 78 2 85 20 85 16 0 20 7 20 35 0 28 4 35
20 35 11 0 20 7 20 15 0 11 12 15 50 15 38 0 50 4 50 15 0 8 9 15 20 15 11 0
20 -7 20 -15z"/>
<path d="M14060 6010 c0 -5 -20 -10 -44 -10 -72 0 -106 -10 -106 -31 0 -11 -7
-19 -15 -19 -8 0 -15 -4 -15 -10 0 -5 7 -10 15 -10 8 0 15 -9 15 -20 0 -11 6
-20 14 -20 8 0 17 -14 21 -30 9 -43 -3 -110 -21 -110 -11 0 -14 -18 -14 -80 0
-64 -3 -80 -15 -80 -11 0 -15 -12 -15 -50 0 -38 4 -50 15 -50 10 0 15 -11 15
-35 0 -23 -5 -35 -14 -35 -23 0 -26 -121 -26 -1147 0 -876 -2 -993 -15 -993
-12 0 -15 -19 -15 -115 0 -96 3 -115 15 -115 8 0 15 -9 15 -20 0 -13 7 -20 20
-20 11 0 20 -7 20 -15 0 -13 33 -15 240 -15 198 0 240 2 240 14 0 7 9 16 20
19 20 5 20 14 20 586 0 510 2 581 15 581 10 0 15 10 15 34 0 33 0 33 57 39 32
3 139 3 239 0 l182 -6 6 -49 c5 -33 11 -48 21 -48 11 0 15 -12 15 -44 0 -35 4
-45 20 -49 15 -4 20 -14 20 -36 0 -20 5 -31 14 -31 8 0 17 -15 20 -35 4 -21
13 -35 21 -35 10 0 15 -11 15 -35 0 -28 4 -35 20 -35 16 0 20 -7 20 -30 0 -19
5 -30 14 -30 8 0 17 -15 20 -35 4 -19 13 -35 20 -35 8 0 17 -16 20 -35 4 -21
13 -35 21 -35 10 0 15 -10 15 -29 0 -20 6 -30 20 -34 15 -4 20 -14 20 -36 0
-21 5 -31 15 -31 10 0 16 -16 21 -50 4 -32 11 -50 20 -50 10 0 14 -14 14 -49
0 -40 3 -50 20 -54 16 -4 20 -14 20 -51 0 -33 4 -46 14 -46 8 0 17 -15 20 -35
4 -19 13 -35 20 -35 8 0 17 -16 20 -35 4 -21 13 -35 21 -35 8 0 15 -7 15 -15
0 -8 6 -15 14 -15 7 0 16 -9 19 -20 3 -11 12 -20 21 -20 9 0 16 -7 16 -15 0
-13 39 -15 295 -15 l295 0 0 50 c0 38 -4 50 -15 50 -10 0 -15 10 -15 28 0 42
-11 72 -26 72 -9 0 -14 12 -14 35 0 28 -4 35 -20 35 -16 0 -20 7 -20 35 0 24
-5 35 -14 35 -8 0 -17 13 -21 30 -4 16 -13 30 -21 30 -9 0 -14 11 -14 35 0 28
-4 35 -20 35 -16 0 -20 7 -20 30 0 19 -5 30 -14 30 -8 0 -17 15 -20 35 -4 21
-13 35 -21 35 -10 0 -15 11 -15 35 0 28 -4 35 -20 35 -16 0 -20 7 -20 35 0 24
-5 35 -15 35 -8 0 -17 14 -21 35 -3 20 -12 35 -20 35 -8 0 -14 10 -14 23 0 38
-12 67 -26 67 -9 0 -14 12 -14 35 0 28 -4 35 -20 35 -16 0 -20 7 -20 35 0 24
-5 35 -15 35 -10 0 -15 10 -15 29 0 39 -9 61 -26 61 -9 0 -14 12 -14 34 0 25
-5 35 -20 39 -15 4 -20 14 -20 36 0 21 -5 31 -15 31 -10 0 -15 11 -15 35 0 24
5 35 15 35 8 0 15 7 15 15 0 8 9 15 20 15 13 0 20 7 20 20 0 13 7 20 20 20 11
0 20 7 20 15 0 8 9 15 20 15 11 0 20 6 20 14 0 8 13 17 29 21 16 3 32 13 35
21 3 8 12 14 21 14 8 0 15 7 15 15 0 8 9 15 20 15 11 0 20 6 20 14 0 7 9 16
20 19 11 3 20 12 20 21 0 9 6 16 14 16 8 0 17 14 21 30 4 17 13 30 21 30 9 0
14 11 14 35 0 28 4 35 20 35 16 0 20 7 20 35 0 24 5 35 14 35 8 0 17 14 21 30
4 17 13 30 21 30 9 0 14 11 14 33 0 47 10 77 26 77 11 0 14 31 14 165 0 133
-3 165 -14 165 -14 0 -26 60 -26 131 0 27 -4 39 -14 39 -14 0 -26 29 -26 68 0
13 -6 22 -15 22 -8 0 -15 9 -15 20 0 11 -6 20 -14 20 -8 0 -17 13 -21 30 -5
24 -13 31 -41 36 -19 3 -34 12 -34 20 0 8 -9 14 -20 14 -11 0 -20 7 -20 15 0
8 -14 17 -35 21 -20 3 -35 12 -35 20 0 8 -9 14 -20 14 -11 0 -20 7 -20 15 0
10 -11 15 -35 15 -23 0 -35 5 -35 14 0 9 -19 16 -59 20 -33 4 -61 12 -64 19
-3 9 -58 13 -200 15 -163 3 -197 6 -197 18 0 10 -14 14 -55 14 -40 0 -55 4
-55 14 0 13 -41 26 -85 26 -13 0 -25 7 -29 15 -4 12 -25 15 -96 15 -69 0 -90
3 -90 13 0 11 -39 15 -177 20 -110 4 -179 10 -181 17 -5 13 -302 14 -302 0z
m1031 -572 c7 -13 23 -18 59 -18 38 0 50 -4 50 -15 0 -12 13 -15 55 -15 41 0
55 -4 55 -14 0 -9 15 -17 40 -21 25 -4 40 -12 40 -21 0 -9 12 -14 35 -14 24 0
35 -5 35 -15 0 -8 9 -15 20 -15 11 0 20 -6 20 -14 0 -7 9 -16 20 -19 15 -4 20
-14 20 -36 0 -21 5 -31 15 -31 12 0 15 -18 15 -100 0 -78 -3 -100 -14 -100 -7
0 -16 -9 -19 -20 -3 -11 -12 -20 -21 -20 -9 0 -16 -7 -16 -15 0 -8 -9 -15 -20
-15 -11 0 -20 -6 -20 -14 0 -8 -15 -17 -35 -20 -19 -4 -35 -11 -35 -15 0 -5
-16 -12 -35 -15 -21 -4 -35 -13 -35 -21 0 -11 -12 -15 -40 -15 -27 0 -40 -4
-40 -14 0 -10 -18 -15 -66 -18 -36 -2 -69 -9 -72 -15 -4 -7 -49 -15 -100 -19
-67 -5 -92 -10 -92 -20 0 -11 -33 -14 -165 -14 -140 0 -165 -2 -165 -15 0 -8
-9 -15 -20 -15 -11 0 -20 7 -20 15 0 8 -9 15 -20 15 -20 0 -20 7 -20 335 0
286 2 335 15 335 8 0 17 14 21 35 l6 36 270 -3 c244 -3 270 -5 279 -20z"/>
</g>
</svg>
